<svg width="812" height="705" viewBox="0 0 812 705" fill="none" xmlns="http://www.w3.org/2000/svg">
<g clip-path="url(#clip0_8104_9133)">
<path d="M399.081 705C178.675 705 6.10352e-05 696.327 6.10352e-05 685.627C6.10352e-05 674.928 178.675 666.255 399.081 666.255C619.487 666.255 798.162 674.928 798.162 685.627C798.162 696.327 619.487 705 399.081 705Z" fill="#E7ECFF"/>
<path d="M303.354 376.151C303.354 376.151 288.017 362.221 283.777 366.735C281.005 369.685 290.836 377.275 290.836 377.275C290.836 377.275 275.389 375.966 268.176 376.306C254.957 376.927 258.154 409.678 301.248 396.251L303.354 376.151Z" fill="#FDCCC5"/>
<path d="M412.906 274.467C417.595 276.694 424.992 288.601 427.069 302.417C430.715 326.738 420.699 381.358 398.443 396.525C378.466 410.122 301.825 397.425 301.825 397.425C297.7 397.08 299.54 375.116 303.664 375.462C303.664 375.462 362.683 376.952 376.517 363.338C390.61 349.47 386.467 304.604 395.986 286.68C398.196 282.499 408.644 272.441 412.906 274.467Z" fill="url(#paint0_linear_8104_9133)"/>
<path d="M251.55 631.406C253.675 640.629 251.79 648.183 248.572 655.18L269.696 657.824L272.681 634.053L251.55 631.406Z" fill="#FDCCC5"/>
<path d="M204.396 663.19V663.205V663.252C204.176 664.458 204.331 665.702 204.841 666.817C205.351 667.931 206.191 668.862 207.247 669.484C211.445 671.969 219.677 675.567 231.199 674.772C248.429 673.569 263.891 677.45 270.041 678.844C272.211 679.338 273.795 676.351 274.677 672.111C274.717 671.922 274.757 671.733 274.779 671.545C276.067 664.695 275.493 655.031 272.44 651.43C272.255 651.207 272.051 651 271.832 650.812C271.58 650.592 271.297 650.412 270.991 650.276C266.525 648.284 256.232 658.72 251.492 651.911C250.963 651.177 251.303 649.928 251.781 648.459C251.992 647.8 252.225 647.081 252.427 646.357C252.592 645.622 252.549 644.854 252.302 644.142C251.722 642.24 249.396 641.517 247.77 642.652C246.473 643.557 244.637 644.782 242.144 646.342C241.695 646.62 241.255 646.963 240.798 647.303C240.483 647.521 240.167 647.751 239.837 647.981C238.729 648.802 237.576 649.558 236.383 650.248C235.9 650.538 235.422 650.797 234.959 651.058C233.734 651.685 232.548 652.238 231.358 652.71C230.854 652.918 230.352 653.109 229.836 653.277C219.628 656.808 211.33 654.599 207.989 656.992C205.876 658.48 204.9 660.922 204.441 663.063C204.416 663.101 204.401 663.145 204.396 663.19Z" fill="url(#paint1_linear_8104_9133)"/>
<path d="M271.809 673.382C271.809 673.382 275.853 666.206 272.077 658.567C272.077 658.567 265.131 664.565 259.198 663.288C253.265 662.011 247.783 653.749 247.783 653.749C247.783 653.749 247.373 656.333 249.441 660.468C249.441 660.468 245.868 659.87 243.398 655.84C243.398 655.84 242.892 659.05 245.723 662.436C245.723 662.436 241.461 661.441 238.358 658.41C238.358 658.41 239.176 661.86 241.757 664.104C241.757 664.104 236.356 668.111 233.378 667.768L240.883 672.712L269.157 677.018L271.809 673.382Z" fill="#070159"/>
<path d="M207.232 669.492C211.432 671.966 219.673 675.564 231.186 674.78C248.421 673.575 263.88 677.46 270.04 678.863C272.198 679.348 273.794 676.355 274.67 672.127C274.706 671.938 274.744 671.749 274.768 671.56C265.245 665.923 249.692 664.748 236.853 668.727C222.798 673.084 208.042 667.87 204.434 663.188C204.422 663.177 204.413 663.188 204.402 663.188C204.39 663.188 204.402 663.199 204.402 663.199C204.394 663.213 204.391 663.228 204.392 663.243C204.165 664.45 204.316 665.698 204.824 666.817C205.333 667.935 206.173 668.869 207.232 669.492Z" fill="#070159"/>
<path d="M240.768 647.317C241.872 649.573 243.623 651.45 245.797 652.709C245.903 652.771 246.023 652.809 246.147 652.817C246.27 652.826 246.394 652.805 246.508 652.758C246.674 652.689 246.814 652.57 246.909 652.418C247.017 652.231 247.048 652.009 246.993 651.8C246.938 651.591 246.802 651.413 246.616 651.304C244.649 650.154 243.082 648.429 242.126 646.361C241.693 646.66 241.24 646.986 240.768 647.317Z" fill="white"/>
<path d="M234.94 651.06C236.205 653.38 238.16 655.249 240.535 656.407C240.73 656.5 240.954 656.513 241.159 656.443C241.363 656.372 241.532 656.223 241.627 656.029C241.674 655.933 241.702 655.828 241.709 655.721C241.716 655.614 241.701 655.506 241.666 655.405C241.631 655.304 241.576 655.21 241.504 655.13C241.433 655.05 241.346 654.985 241.249 654.939C239.175 653.926 237.467 652.292 236.364 650.263C235.884 650.556 235.412 650.807 234.94 651.06Z" fill="white"/>
<path d="M229.815 653.288C230.877 655.86 232.75 658.014 235.148 659.424C235.254 659.49 235.374 659.53 235.499 659.541C235.623 659.551 235.749 659.531 235.864 659.483C236.032 659.414 236.171 659.291 236.26 659.133C236.369 658.947 236.399 658.724 236.344 658.516C236.289 658.307 236.154 658.128 235.968 658.019C233.889 656.805 232.265 654.944 231.343 652.72C230.831 652.92 230.325 653.116 229.815 653.288Z" fill="white"/>
<path d="M251.021 650.915C250.969 652.359 251.484 653.842 252.557 654.82C253.346 655.489 254.307 655.924 255.331 656.076C256.354 656.227 257.393 656.234 258.418 656.097C259.709 655.972 260.989 655.749 262.246 655.428C265.641 654.57 268.832 653.048 271.635 650.949C271.695 650.904 271.758 650.864 271.824 650.83C271.572 650.61 271.289 650.429 270.983 650.293C266.517 648.301 256.224 658.737 251.484 651.929C250.955 651.194 251.295 649.946 251.773 648.477C251.289 649.198 251.028 650.046 251.021 650.915Z" fill="#070159"/>
<path d="M248.019 638.72C247.703 641.423 275.1 644.554 275.415 641.85L322.968 471.673L417.124 482.501L435.478 419.547C374.347 422.979 331.449 419.289 295.976 438.023C264.248 454.782 248.019 638.72 248.019 638.72Z" fill="url(#paint2_linear_8104_9133)"/>
<path d="M357.764 672.75H369.951L377.982 599.717H492.61L500.642 672.75H512.829L492.675 499.104H480.47L490.983 586.183H379.61L390.125 499.104H377.92L357.764 672.75Z" fill="url(#paint3_linear_8104_9133)"/>
<path d="M517.913 275.134C489.045 287.674 586.867 507.704 363.971 469.998C340.642 469.998 339.8 503.345 363.903 504.862C363.903 504.862 511.857 525.349 541.64 486.165C567.535 452.093 571.907 251.678 517.913 275.134Z" fill="url(#paint4_linear_8104_9133)"/>
<path d="M347.504 494.016C349.855 499.713 355.296 504.308 363.895 504.86C363.895 504.86 511.866 525.35 541.636 486.163C566.336 453.675 571.444 269.946 525.062 273.27C551.101 313.152 544.173 447.7 523.389 475.047C495.566 511.658 364.63 496.203 347.504 494.016Z" fill="#C2D5FF"/>
<path d="M520.247 275.895C541.434 297.02 506.101 352.161 519.931 419.547C470.862 423.121 431.705 425.878 389.178 421.751C398.977 372.155 388.693 305.473 404.335 280.559C420.812 254.313 498.296 254.007 520.247 275.895Z" fill="url(#paint5_linear_8104_9133)"/>
<path d="M311.742 632.484C314.998 641.372 314.067 649.103 311.742 656.444H333.032V632.484H311.742Z" fill="#FDCCC5"/>
<path d="M268.905 669.883V669.947C268.836 671.172 269.144 672.388 269.789 673.431C270.434 674.475 271.383 675.295 272.51 675.781C276.983 677.724 285.6 680.27 296.934 678.056C313.88 674.721 329.705 676.649 335.981 677.265C338.195 677.488 339.396 674.325 339.743 670.009C339.76 669.821 339.775 669.632 339.775 669.443C340.202 662.486 338.433 652.967 334.954 649.774C334.743 649.577 334.515 649.397 334.274 649.238C333.997 649.051 333.694 648.907 333.374 648.811C328.694 647.387 319.777 659.024 314.229 652.858C313.612 652.193 313.803 650.913 314.086 649.394C314.212 648.714 314.356 647.972 314.463 647.228C314.536 646.478 314.398 645.722 314.063 645.047C313.253 643.232 310.853 642.803 309.376 644.133C308.2 645.192 306.53 646.635 304.251 648.493C303.841 648.826 303.445 649.221 303.035 649.627C302.75 649.878 302.469 650.148 302.165 650.416C301.168 651.366 300.118 652.259 299.018 653.088C298.577 653.436 298.133 653.753 297.706 654.068C296.573 654.843 295.463 655.54 294.339 656.146C293.865 656.414 293.395 656.667 292.9 656.901C283.211 661.675 274.706 660.521 271.686 663.303C269.773 665.043 269.109 667.588 268.92 669.77C268.906 669.806 268.901 669.844 268.905 669.883Z" fill="url(#paint6_linear_8104_9133)"/>
<path d="M337.061 671.615C337.061 671.615 340.183 663.996 335.487 656.884C335.487 656.884 329.34 663.698 323.293 663.171C317.247 662.644 310.783 655.126 310.783 655.126C310.783 655.126 310.698 657.74 313.262 661.587C313.262 661.587 309.644 661.437 306.695 657.745C306.695 657.745 306.593 661.001 309.822 664C309.822 664 305.478 663.543 302.019 660.92C302.019 660.92 303.26 664.242 306.105 666.147C306.105 666.147 301.247 670.795 298.248 670.823L306.309 674.789L334.899 675.545L337.061 671.615Z" fill="#070159"/>
<path d="M272.492 675.785C276.968 677.718 285.592 680.262 296.918 678.051C313.87 674.714 329.691 676.646 335.977 677.271C338.179 677.484 339.392 674.315 339.735 670.011C339.749 669.822 339.762 669.634 339.762 669.445C329.612 665.035 314.035 665.804 301.788 671.356C288.381 677.426 273.085 674.087 268.931 669.89C268.929 669.888 268.926 669.886 268.924 669.885C268.921 669.884 268.918 669.883 268.915 669.883C268.912 669.883 268.909 669.884 268.906 669.885C268.903 669.886 268.901 669.888 268.899 669.89C268.894 669.905 268.894 669.921 268.899 669.936C268.823 671.162 269.128 672.382 269.771 673.428C270.414 674.475 271.364 675.298 272.492 675.785Z" fill="#070159"/>
<path d="M303.031 649.61C304.41 651.71 306.382 653.353 308.696 654.331C308.81 654.379 308.934 654.4 309.057 654.393C309.181 654.386 309.301 654.35 309.408 654.289C309.563 654.203 309.687 654.071 309.763 653.912C309.806 653.813 309.828 653.708 309.83 653.601C309.831 653.494 309.811 653.387 309.771 653.288C309.731 653.189 309.672 653.098 309.597 653.022C309.522 652.945 309.433 652.884 309.335 652.843C307.24 651.948 305.47 650.432 304.264 648.499C303.858 648.845 303.449 649.224 303.031 649.61Z" fill="white"/>
<path d="M297.704 654.05C299.247 656.195 301.421 657.807 303.922 658.659C304.127 658.729 304.35 658.714 304.544 658.619C304.738 658.524 304.887 658.356 304.957 658.151C304.992 658.05 305.007 657.943 305 657.835C304.994 657.728 304.966 657.624 304.919 657.527C304.871 657.431 304.805 657.345 304.724 657.275C304.643 657.204 304.549 657.15 304.447 657.116C302.262 656.369 300.364 654.96 299.016 653.084C298.578 653.43 298.14 653.742 297.704 654.05Z" fill="white"/>
<path d="M292.9 656.897C294.274 659.316 296.4 661.221 298.954 662.323C299.068 662.376 299.193 662.4 299.318 662.395C299.443 662.39 299.565 662.355 299.674 662.293C299.806 662.217 299.914 662.106 299.987 661.972C300.06 661.839 300.094 661.687 300.086 661.535C300.077 661.383 300.027 661.237 299.94 661.112C299.854 660.987 299.734 660.888 299.595 660.827C297.382 659.879 295.539 658.235 294.347 656.144C293.86 656.406 293.38 656.665 292.9 656.897Z" fill="white"/>
<path d="M313.644 651.906C313.77 653.345 314.465 654.752 315.651 655.59C316.517 656.157 317.525 656.469 318.559 656.491C319.594 656.513 320.627 656.391 321.628 656.129C322.893 655.846 324.135 655.468 325.342 654.996C327.511 654.138 329.562 653.006 331.444 651.628C332.376 650.936 333.263 650.186 334.101 649.383C334.155 649.331 334.213 649.284 334.274 649.241C333.997 649.055 333.694 648.911 333.374 648.814C328.694 647.39 319.777 659.028 314.229 652.861C313.612 652.197 313.803 650.916 314.086 649.398C313.696 650.173 313.543 651.045 313.644 651.906Z" fill="#070159"/>
<path d="M309.199 641.85C309.278 644.713 339.362 644.033 339.299 641.172L351.234 485.557C351.234 485.557 479.126 497.256 504.947 483.408C527.207 471.486 529.119 405.718 511.224 411.993C447.208 434.467 358.323 397.165 316.935 446.65C291.051 477.608 309.199 641.85 309.199 641.85Z" fill="url(#paint7_linear_8104_9133)"/>
<path d="M428.283 219.535C429.049 246.277 437.115 248.39 448.585 248.39V260.966L455.432 282.429L480.43 261.06V232.991C481.852 229.286 482.638 224.812 482.638 219.535C482.638 198.803 470.458 181.98 455.47 181.98C440.44 181.98 427.044 176.011 428.283 219.535Z" fill="#FDCCC5"/>
<path d="M483.329 229.316L470.161 221.558C470.161 221.558 462.204 206.867 469.961 194.898C469.961 194.898 447.679 199.021 432.047 192.156C429.805 196.539 428.821 202.11 428.302 208.807C428.302 208.807 423.128 205.364 425.938 192.771C425.938 192.771 416.841 183.895 430 177.96C430 177.96 417.491 163.796 436.562 162.587C455.632 161.378 482.419 168.838 478.18 189.971C478.18 189.973 507.028 198.331 483.329 229.316Z" fill="url(#paint8_linear_8104_9133)"/>
<path d="M486.334 218.042H486.379C486.43 218.036 486.48 218.02 486.526 217.995C486.571 217.969 486.611 217.936 486.644 217.895C486.676 217.854 486.7 217.807 486.714 217.757C486.728 217.707 486.732 217.655 486.726 217.604C486.726 217.556 486.131 212.816 481.006 211.938C476.682 211.196 474.35 213.93 473.808 214.667L452.856 215.874C452.804 215.876 452.753 215.889 452.705 215.911C452.658 215.934 452.615 215.965 452.58 216.004C452.545 216.043 452.518 216.089 452.501 216.139C452.483 216.188 452.476 216.241 452.479 216.293C452.489 216.397 452.537 216.493 452.615 216.563C452.693 216.633 452.794 216.672 452.898 216.671L474.048 215.454C474.111 215.45 474.173 215.431 474.227 215.398C474.282 215.365 474.328 215.32 474.361 215.266C474.446 215.132 476.471 211.989 480.874 212.726C485.406 213.498 485.922 217.526 485.943 217.696C485.955 217.791 486.002 217.878 486.074 217.942C486.145 218.005 486.238 218.041 486.334 218.042Z" fill="#47090E"/>
<path d="M437.272 206.363C437.648 206.446 438.004 206.602 438.32 206.822C438.611 207.049 438.796 207.4 438.698 207.723C438.556 208.165 437.971 208.382 437.446 208.491C435.04 208.998 432.373 208.531 430.406 207.258C430.208 207.16 430.052 206.995 429.966 206.792C429.743 205.948 432.63 205.9 433.193 205.883C434.569 205.837 435.944 205.998 437.272 206.363Z" fill="url(#paint9_linear_8104_9133)"/>
<path d="M451.842 206.363C452.218 206.447 452.574 206.603 452.89 206.822C453.181 207.049 453.366 207.4 453.268 207.723C453.128 208.165 452.543 208.382 452.016 208.492C449.612 208.998 446.944 208.531 444.978 207.258C444.775 207.164 444.613 206.999 444.523 206.794C444.3 205.95 447.187 205.902 447.75 205.885C449.13 205.837 450.51 205.998 451.842 206.363Z" fill="url(#paint10_linear_8104_9133)"/>
<path d="M484.279 228.459C481.189 234.171 475.708 236.689 472.052 234.083C468.396 231.476 467.933 224.715 471.022 219.003C474.112 213.29 479.592 210.744 483.261 213.36C486.93 215.975 487.38 222.727 484.279 228.459Z" fill="#FDCCC5"/>
<path d="M439.817 229.645C440.125 229.645 440.431 229.645 440.731 229.628L441.196 229.617C441.406 229.615 441.607 229.529 441.754 229.379C441.902 229.229 441.983 229.026 441.981 228.816C441.979 228.605 441.894 228.404 441.744 228.257C441.594 228.11 441.391 228.028 441.181 228.03H441.166L440.688 228.042C439.855 228.064 438.301 228.111 438.067 227.72C438.044 227.685 437.878 227.343 438.552 226.136C439.834 223.809 440.819 221.33 441.483 218.758C441.508 218.656 441.512 218.551 441.496 218.448C441.481 218.345 441.445 218.246 441.39 218.157C441.336 218.068 441.265 217.99 441.181 217.928C441.097 217.867 441.002 217.822 440.9 217.797C440.799 217.772 440.694 217.768 440.591 217.784C440.488 217.8 440.389 217.836 440.3 217.89C440.21 217.944 440.133 218.015 440.071 218.099C440.009 218.183 439.965 218.278 439.94 218.38C439.306 220.807 438.377 223.146 437.174 225.347C436.396 226.716 436.243 227.758 436.707 228.531C437.281 229.499 438.539 229.645 439.817 229.645Z" fill="#F7B4AD"/>
<path d="M445.425 217.574C445.425 217.801 445.493 218.023 445.619 218.211C445.745 218.4 445.924 218.547 446.134 218.634C446.344 218.721 446.575 218.744 446.798 218.7C447.02 218.655 447.225 218.546 447.385 218.385C447.546 218.225 447.655 218.02 447.7 217.798C447.744 217.575 447.721 217.344 447.634 217.134C447.547 216.924 447.4 216.745 447.211 216.619C447.023 216.493 446.801 216.425 446.574 216.425C446.269 216.426 445.978 216.548 445.763 216.763C445.548 216.978 445.426 217.269 445.425 217.574Z" fill="#47090E"/>
<path d="M431.588 217.415C431.588 217.642 431.655 217.864 431.781 218.053C431.907 218.242 432.086 218.389 432.296 218.476C432.506 218.563 432.737 218.585 432.96 218.541C433.182 218.497 433.387 218.387 433.547 218.227C433.708 218.066 433.817 217.862 433.862 217.639C433.906 217.416 433.883 217.185 433.796 216.975C433.709 216.766 433.562 216.586 433.374 216.46C433.185 216.334 432.963 216.267 432.736 216.267C432.432 216.268 432.14 216.39 431.925 216.605C431.71 216.82 431.589 217.111 431.588 217.415Z" fill="#47090E"/>
<path d="M440.92 238.155C443.83 238.155 446.153 236.502 446.19 236.474C446.361 236.35 446.475 236.164 446.508 235.956C446.541 235.748 446.49 235.536 446.366 235.365C446.242 235.195 446.056 235.081 445.848 235.048C445.64 235.015 445.428 235.066 445.258 235.19C445.048 235.343 440.068 238.848 436.152 234.094C436.016 233.939 435.825 233.842 435.619 233.825C435.413 233.808 435.209 233.872 435.05 234.003C434.89 234.135 434.788 234.323 434.766 234.528C434.743 234.734 434.801 234.94 434.928 235.103C436.858 237.445 439.016 238.155 440.92 238.155Z" fill="#F7B4AD"/>
<path d="M432.736 225.364C435.876 225.364 438.431 222.164 438.431 218.231C438.431 214.297 435.876 211.098 432.736 211.098C429.595 211.098 427.042 214.297 427.042 218.231C427.042 222.164 429.595 225.364 432.736 225.364ZM432.736 211.891C435.438 211.891 437.646 214.735 437.646 218.231C437.646 221.726 435.446 224.57 432.736 224.57C430.026 224.57 427.835 221.726 427.835 218.231C427.835 214.735 430.034 211.893 432.736 211.893V211.891Z" fill="#47090E"/>
<path d="M447.812 225.364C450.953 225.364 453.506 222.164 453.506 218.231C453.506 214.297 450.953 211.098 447.812 211.098C444.672 211.098 442.117 214.297 442.117 218.231C442.117 222.164 444.672 225.364 447.812 225.364ZM447.812 211.891C450.515 211.891 452.713 214.735 452.713 218.231C452.713 221.726 450.515 224.57 447.812 224.57C445.11 224.57 442.903 221.726 442.903 218.231C442.903 214.735 445.11 211.893 447.812 211.893V211.891Z" fill="#47090E"/>
<path d="M437.685 216.236C437.762 216.236 437.836 216.214 437.9 216.172C439.864 214.908 442.665 216.187 442.693 216.198C442.788 216.242 442.896 216.246 442.994 216.211C443.092 216.176 443.173 216.103 443.218 216.009C443.24 215.962 443.253 215.911 443.256 215.86C443.258 215.808 443.251 215.756 443.233 215.707C443.216 215.658 443.189 215.613 443.154 215.574C443.119 215.536 443.076 215.505 443.029 215.482C442.897 215.42 439.819 214.002 437.47 215.509C437.398 215.555 437.344 215.624 437.314 215.704C437.285 215.784 437.282 215.872 437.306 215.954C437.33 216.036 437.38 216.107 437.448 216.159C437.517 216.21 437.6 216.238 437.685 216.238V216.236Z" fill="#47090E"/>
<path d="M448.581 248.39C448.581 248.39 456.744 247.967 462.961 243.92C462.961 243.92 459.562 251.642 448.581 253.085V248.39Z" fill="#F7B4AD"/>
<path d="M30.3862 427.326L39.3163 440.886C40.6872 442.966 42.5527 444.673 44.7457 445.854C46.9387 447.035 49.3906 447.654 51.8815 447.654H676.342C678.833 447.654 681.284 447.036 683.477 445.854C685.671 444.673 687.536 442.966 688.907 440.886L697.839 427.326C704.429 417.317 697.253 403.999 685.274 403.999H42.9495C30.9696 403.999 23.7939 417.321 30.3862 427.326Z" fill="url(#paint11_linear_8104_9133)"/>
<path d="M30.3785 427.328L39.318 440.88C40.6866 442.961 42.5505 444.669 44.7424 445.851C46.9342 447.034 49.3853 447.653 51.8757 447.654H676.347C678.837 447.653 681.288 447.034 683.48 445.851C685.671 444.669 687.535 442.961 688.903 440.88L697.842 427.328C698.989 425.603 699.765 423.659 700.12 421.619C700.476 419.578 700.404 417.487 699.908 415.476C699.489 417.138 698.79 418.717 697.842 420.146L688.903 433.696C687.535 435.777 685.671 437.485 683.48 438.668C681.288 439.851 678.837 440.471 676.347 440.472H51.8757C49.3852 440.471 46.934 439.851 44.7422 438.668C42.5503 437.486 40.6865 435.777 39.318 433.696L30.3785 420.146C29.4307 418.717 28.7315 417.138 28.3107 415.476C27.8161 417.487 27.7444 419.579 28.1004 421.619C28.4563 423.659 29.2321 425.603 30.3785 427.328Z" fill="#ADC8F7"/>
<path d="M93.6864 447.645L31.3492 683.622H44.2053L126.047 447.645H93.6864Z" fill="url(#paint12_linear_8104_9133)"/>
<path d="M170.934 447.645L108.597 683.622H121.453L203.295 447.645H170.934Z" fill="url(#paint13_linear_8104_9133)"/>
<path d="M655.532 447.645L717.867 683.622H705.011L623.17 447.645H655.532Z" fill="url(#paint14_linear_8104_9133)"/>
<path d="M577.431 447.645L639.768 683.622H626.912L545.069 447.645H577.431Z" fill="url(#paint15_linear_8104_9133)"/>
<path d="M397.586 396.332C404.057 388.847 417.708 394.011 417.708 394.011C417.708 394.011 414.198 384.627 417.973 381.429C421.748 378.232 421.204 386.753 423.965 390.611C426.108 393.607 432.4 393.795 435.119 393.729V407.185C412.459 419.867 412.021 402.817 406.331 405.546C400.445 408.369 398.632 412.754 394.802 410.909C391.554 409.344 393.667 400.864 397.586 396.332Z" fill="#FDCCC5"/>
<path d="M103.466 409.944C103.466 411.373 103.747 412.788 104.294 414.108C104.84 415.429 105.642 416.628 106.652 417.639C107.662 418.649 108.861 419.451 110.182 419.998C111.502 420.544 112.916 420.826 114.345 420.826H158.956V399.064H114.345C111.46 399.064 108.693 400.211 106.653 402.251C104.612 404.291 103.466 407.059 103.466 409.944Z" fill="url(#paint16_linear_8104_9133)"/>
<path d="M107.539 409.944C107.539 411.806 108.279 413.591 109.595 414.908C110.912 416.224 112.697 416.964 114.559 416.964H158.956V402.926H114.559C112.697 402.926 110.912 403.666 109.596 404.982C108.28 406.298 107.54 408.083 107.539 409.944Z" fill="url(#paint17_linear_8104_9133)"/>
<path d="M49.2868 409.942C49.2868 411.373 49.5685 412.789 50.1159 414.11C50.6633 415.432 51.4657 416.633 52.4771 417.644C53.4886 418.655 54.6893 419.458 56.0108 420.005C57.3323 420.552 58.7486 420.834 60.1789 420.833H114.353C112.924 420.833 111.509 420.552 110.189 420.005C108.869 419.458 107.669 418.657 106.659 417.646C105.648 416.636 104.847 415.436 104.3 414.116C103.753 412.796 103.472 411.381 103.472 409.952C103.472 408.523 103.753 407.108 104.3 405.787C104.847 404.467 105.648 403.268 106.659 402.257C107.669 401.247 108.869 400.445 110.189 399.898C111.509 399.351 112.924 399.07 114.353 399.07H60.1846C58.7543 399.065 57.3371 399.343 56.0144 399.887C54.6917 400.431 53.4895 401.231 52.4769 402.242C51.4643 403.252 50.6612 404.452 50.1138 405.774C49.5663 407.095 49.2853 408.512 49.2868 409.942Z" fill="url(#paint18_linear_8104_9133)"/>
<path d="M517.173 273.744C522.254 274.794 532.262 284.606 537.55 297.539C546.858 320.299 550.081 375.745 532.053 395.742C515.873 413.697 437.028 410.631 437.028 410.631C431.828 410.567 432.084 390.334 437.283 390.398C437.283 390.398 492.671 385.208 502.883 368.702C513.286 351.895 498.621 309.282 503.622 289.615C504.785 285.033 512.544 272.786 517.173 273.744Z" fill="url(#paint19_linear_8104_9133)"/>
<path d="M773.585 684.439H752.553C751.584 684.45 750.627 684.23 749.762 683.796C740.388 678.951 733.96 669.21 733.96 657.96C733.969 651.8 735.948 645.803 739.606 640.847H786.507C790.167 645.804 792.147 651.801 792.161 657.962C792.161 669.21 785.741 678.95 776.382 683.796C775.514 684.23 774.555 684.451 773.585 684.439Z" fill="url(#paint20_linear_8104_9133)"/>
<path d="M737.512 627.036H788.607C790.398 627.036 791.85 628.488 791.85 630.279V637.601C791.85 639.391 790.398 640.843 788.607 640.843H737.512C735.721 640.843 734.269 639.391 734.269 637.601V630.279C734.269 628.488 735.721 627.036 737.512 627.036Z" fill="url(#paint21_linear_8104_9133)"/>
<path d="M768.894 627.225H762.974C756.625 616.891 747.27 587.137 749.778 557.51C752.883 520.057 769.512 505.998 778.625 511.602C788.62 517.286 787.102 534.594 779.484 563.549C772.408 587.753 771.304 616.936 768.894 627.225Z" fill="url(#paint22_linear_8104_9133)"/>
<path d="M767.638 627.225H764.885C756.265 581.062 767.801 531.322 767.929 530.789C767.968 530.615 768.041 530.451 768.144 530.306C768.248 530.161 768.379 530.038 768.531 529.945C768.682 529.851 768.851 529.789 769.027 529.762C769.203 529.735 769.382 529.743 769.555 529.786C769.728 529.827 769.891 529.901 770.035 530.005C770.179 530.109 770.301 530.24 770.394 530.391C770.487 530.542 770.55 530.71 770.578 530.885C770.606 531.061 770.599 531.24 770.558 531.412C770.433 531.939 758.948 581.515 767.638 627.225Z" fill="#C2D5FF"/>
<path d="M773.553 627.225H765.924C765.248 616.528 767.68 595.805 776.731 577.84C789.514 552.377 805.187 547.193 810.008 553.716C815.432 560.541 809.47 572.282 795.925 590.493C786.345 602.664 778.599 618.254 773.553 627.225Z" fill="url(#paint23_linear_8104_9133)"/>
<path d="M770.989 627.225H768.215C776.004 593.811 796.569 564.314 796.797 563.991C796.897 563.841 797.026 563.712 797.176 563.612C797.327 563.512 797.496 563.444 797.673 563.41C797.851 563.377 798.033 563.38 798.21 563.418C798.386 563.457 798.553 563.53 798.701 563.634C798.848 563.738 798.973 563.871 799.069 564.024C799.164 564.178 799.228 564.349 799.256 564.527C799.284 564.705 799.276 564.888 799.233 565.063C799.189 565.238 799.111 565.403 799.003 565.547C798.782 565.868 778.744 594.612 770.989 627.225Z" fill="#C2D5FF"/>
<path d="M753.083 627.225C744.74 619.467 734.239 606.649 727.894 591.72C716.707 565.521 722.875 550.209 730.964 550.739C739.675 551.008 744.774 563.143 749.935 585.254C753.17 601.067 760.519 617.75 763.956 627.234L753.083 627.225Z" fill="url(#paint24_linear_8104_9133)"/>
<path d="M757.921 627.225C738.926 600.219 730.362 567.84 730.266 567.466C730.183 567.122 730.24 566.759 730.422 566.455C730.605 566.152 730.899 565.932 731.242 565.843C731.585 565.754 731.949 565.803 732.255 565.98C732.562 566.157 732.788 566.447 732.883 566.788C732.981 567.166 741.802 600.374 761.282 627.221L757.921 627.225Z" fill="#C2D5FF"/>
<path d="M188.214 318.318H334.969C336.58 318.31 338.152 318.819 339.452 319.771C340.752 320.723 341.712 322.068 342.19 323.606L369.519 410.309C369.519 410.403 369.581 410.528 369.581 410.62H430.398C432.604 410.62 434.783 411.098 436.786 412.022C438.79 412.945 440.569 414.292 442.002 415.968L449.999 425.32C450.109 425.449 450.18 425.607 450.203 425.775C450.226 425.943 450.201 426.114 450.13 426.268C450.059 426.422 449.946 426.552 449.803 426.644C449.66 426.735 449.494 426.784 449.325 426.784H217.446C215.842 426.781 214.28 426.266 212.987 425.315C211.695 424.365 210.738 423.027 210.257 421.496L181.023 328.133C180.663 327.003 180.575 325.804 180.767 324.634C180.958 323.463 181.423 322.354 182.124 321.398C182.825 320.441 183.742 319.663 184.8 319.128C185.859 318.593 187.028 318.316 188.214 318.318Z" fill="#3D79F3"/>
<path d="M175.022 328.137L204.292 421.5C204.768 423.037 205.723 424.381 207.016 425.337C208.31 426.293 209.874 426.811 211.483 426.816H352.016C357.114 426.816 360.738 421.844 359.239 416.996L329.969 323.603C329.481 322.07 328.518 320.732 327.22 319.781C325.922 318.831 324.356 318.318 322.748 318.315H182.253C181.064 318.311 179.892 318.587 178.831 319.122C177.769 319.656 176.849 320.433 176.144 321.39C175.44 322.348 174.971 323.457 174.776 324.63C174.581 325.802 174.665 327.004 175.022 328.137Z" fill="url(#paint25_linear_8104_9133)"/>
<path d="M276.241 370.24C276.237 372.756 275.487 375.213 274.087 377.303C272.686 379.392 270.698 381.02 268.373 381.98C266.048 382.94 263.491 383.189 261.024 382.695C258.558 382.202 256.293 380.989 254.516 379.208C252.739 377.428 251.529 375.161 251.04 372.694C250.551 370.226 250.804 367.669 251.767 365.346C252.731 363.022 254.361 361.036 256.453 359.639C258.545 358.242 261.003 357.496 263.519 357.496C263.8 357.49 264.081 357.503 264.361 357.536C263.798 358.715 263.51 360.006 263.519 361.313C263.521 363.716 264.477 366.021 266.176 367.72C267.876 369.42 270.18 370.375 272.583 370.378C273.833 370.383 275.071 370.125 276.216 369.622C276.241 369.828 276.241 370.034 276.241 370.24Z" fill="url(#paint26_linear_8104_9133)"/>
<path d="M343.307 85.6445C343.517 85.6445 343.719 85.5609 343.867 85.4122C344.016 85.2634 344.1 85.0617 344.1 84.8513V68.2153C344.1 53.024 331.74 40.6636 316.55 40.6636H299.307C299.097 40.6636 298.895 40.7471 298.747 40.8959C298.598 41.0446 298.514 41.2464 298.514 41.4568C298.514 41.6671 298.598 41.8689 298.747 42.0176C298.895 42.1664 299.097 42.2499 299.307 42.2499H316.554C330.872 42.2499 342.517 53.8965 342.517 68.2153V84.8513C342.517 85.061 342.6 85.2622 342.748 85.4108C342.896 85.5595 343.097 85.6435 343.307 85.6445Z" fill="#B7BCFF"/>
<path d="M299.607 289.823H316.244C331.436 289.823 343.793 277.462 343.793 262.269V245.023C343.799 244.916 343.782 244.809 343.745 244.708C343.707 244.607 343.65 244.515 343.576 244.438C343.502 244.36 343.412 244.298 343.314 244.256C343.215 244.213 343.109 244.191 343.001 244.191C342.894 244.191 342.788 244.213 342.689 244.256C342.59 244.298 342.501 244.36 342.427 244.438C342.353 244.515 342.295 244.607 342.258 244.708C342.22 244.809 342.204 244.916 342.209 245.023V262.269C342.209 276.588 330.562 288.237 316.244 288.237H299.607C299.397 288.237 299.195 288.32 299.047 288.469C298.898 288.618 298.814 288.819 298.814 289.03C298.814 289.24 298.898 289.442 299.047 289.591C299.195 289.739 299.397 289.823 299.607 289.823Z" fill="#B7BCFF"/>
<path d="M6.03193 85.6445C6.24228 85.6445 6.44399 85.5609 6.59272 85.4122C6.74146 85.2634 6.82508 85.0617 6.82508 84.8513V68.2153C6.82508 53.8965 18.4726 42.2499 32.7902 42.2499H50.0423C50.2527 42.2499 50.4544 42.1664 50.6031 42.0176C50.7519 41.8689 50.8354 41.6671 50.8354 41.4568C50.8354 41.2464 50.7519 41.0446 50.6031 40.8959C50.4544 40.7471 50.2527 40.6636 50.0423 40.6636H32.7978C17.6058 40.6636 5.24634 53.024 5.24634 68.2153V84.8513C5.24633 85.0604 5.32891 85.261 5.47602 85.4095C5.62313 85.5581 5.82289 85.6425 6.03193 85.6445Z" fill="#B7BCFF"/>
<path d="M33.0942 289.823H49.7308C49.9412 289.823 50.1429 289.739 50.2916 289.591C50.4404 289.442 50.5239 289.24 50.5239 289.03C50.5239 288.819 50.4404 288.618 50.2916 288.469C50.1429 288.32 49.9412 288.237 49.7308 288.237H33.0942C18.7785 288.237 7.12912 276.588 7.12912 262.269V245.023C7.13436 244.916 7.11779 244.809 7.08035 244.708C7.0429 244.607 6.98532 244.515 6.91124 244.438C6.83717 244.36 6.7481 244.298 6.64938 244.256C6.55065 244.213 6.4444 244.191 6.33699 244.191C6.22957 244.191 6.12323 244.213 6.0245 244.256C5.92577 244.298 5.83671 244.36 5.76264 244.438C5.68856 244.515 5.63107 244.607 5.59362 244.708C5.55618 244.809 5.53951 244.916 5.54475 245.023V262.269C5.54475 277.462 17.9023 289.823 33.0942 289.823Z" fill="#B7BCFF"/>
<path d="M20.6421 68.2116V262.261C20.6421 265.74 22.024 269.077 24.4838 271.537C26.9437 273.997 30.28 275.379 33.7587 275.379H229.438L270.085 305.875C270.567 306.237 271.141 306.458 271.741 306.512C272.342 306.566 272.945 306.452 273.485 306.183C274.024 305.913 274.478 305.499 274.795 304.986C275.112 304.473 275.28 303.881 275.28 303.278V275.379H315.604C319.078 275.379 322.409 273.999 324.865 271.543C327.322 269.086 328.702 265.754 328.702 262.28V68.2116C328.702 64.7376 327.322 61.4059 324.865 58.9494C322.409 56.4928 319.078 55.1128 315.604 55.1128H33.7398C30.2661 55.1128 26.9346 56.4928 24.4783 58.9494C22.022 61.4059 20.6421 64.7376 20.6421 68.2116Z" fill="url(#paint27_linear_8104_9133)"/>
<path d="M20.6308 68.2137V99.5254H236.037C237.156 99.5244 238.258 99.2503 239.247 98.7271C240.236 98.2038 241.082 97.4471 241.712 96.5227L250.111 84.1925C250.742 83.266 251.59 82.5078 252.58 81.9838C253.571 81.4598 254.675 81.1859 255.795 81.186H285.307C286.429 81.1848 287.534 81.4582 288.526 81.9822C289.518 82.5063 290.367 83.2651 290.999 84.1925L299.398 96.5227C300.029 97.4491 300.876 98.2074 301.867 98.7314C302.858 99.2554 303.961 99.5293 305.082 99.5292H328.704V68.2137C328.704 66.4919 328.364 64.7869 327.706 63.1962C327.047 61.6055 326.081 60.1601 324.863 58.9427C323.646 57.7253 322.201 56.7597 320.61 56.1009C319.019 55.4422 317.314 55.1033 315.593 55.1035H33.7399C30.2631 55.1035 26.9288 56.4848 24.4704 58.9434C22.0119 61.402 20.6308 64.7366 20.6308 68.2137Z" fill="url(#paint28_linear_8104_9133)"/>
<path d="M44.5775 68.0078H198.442C203.784 68.0078 208.114 72.3386 208.114 77.6808C208.114 83.0231 203.784 87.3539 198.442 87.3539H44.5775C39.2356 87.3539 34.9052 83.0231 34.9052 77.6808C34.9052 72.3386 39.2356 68.0078 44.5775 68.0078Z" fill="url(#paint29_linear_8104_9133)"/>
<path d="M44.5773 68.0078H54.0361V87.3539H44.5773C42.0121 87.3539 39.5518 86.3348 37.738 84.5207C35.9241 82.7067 34.905 80.2463 34.905 77.6808C34.905 75.1154 35.9241 72.655 37.738 70.841C39.5518 69.0269 42.0121 68.0078 44.5773 68.0078Z" fill="#3D79F3"/>
<path d="M45.9973 80.4039C46.8042 80.4031 47.5858 80.1225 48.209 79.6099C48.8322 79.0974 49.2584 78.3846 49.4151 77.593C49.5717 76.8014 49.4491 75.98 49.0681 75.2687C48.687 74.5574 48.0712 74.0002 47.3254 73.692C46.5797 73.3839 45.7502 73.3439 44.9783 73.5788C44.2064 73.8137 43.5397 74.309 43.092 74.9803C42.6443 75.6517 42.4431 76.4575 42.5228 77.2605C42.6026 78.0635 42.9582 78.814 43.5292 79.3841C43.8532 79.7082 44.2381 79.9651 44.6616 80.1401C45.0851 80.3151 45.539 80.4047 45.9973 80.4039ZM45.9973 74.219C46.6212 74.2188 47.2259 74.435 47.7084 74.8307C48.1908 75.2264 48.5211 75.7772 48.6429 76.3892C48.7648 77.0012 48.6706 77.6365 48.3766 78.1868C48.0825 78.7372 47.6067 79.1685 47.0303 79.4073C46.4538 79.6461 45.8125 79.6777 45.2154 79.4965C44.6183 79.3154 44.1025 78.9328 43.7559 78.4139C43.4093 77.895 43.2534 77.272 43.3147 76.651C43.3759 76.0301 43.6506 75.4495 44.0919 75.0084C44.3418 74.7582 44.6385 74.5597 44.9651 74.4243C45.2917 74.2888 45.6418 74.2191 45.9954 74.219H45.9973Z" fill="white"/>
<path d="M41.3785 81.9298C41.4304 81.9299 41.4817 81.9198 41.5297 81.9C41.5776 81.8803 41.6213 81.8513 41.658 81.8146L44.0902 79.3841C44.1274 79.3469 44.1569 79.3027 44.177 79.2541C44.1972 79.2055 44.2075 79.1534 44.2075 79.1008C44.2075 79.0482 44.1972 78.9961 44.177 78.9475C44.1569 78.8989 44.1274 78.8547 44.0902 78.8175C44.053 78.7803 44.0088 78.7508 43.9602 78.7307C43.9116 78.7106 43.8595 78.7002 43.8069 78.7002C43.7543 78.7002 43.7022 78.7106 43.6536 78.7307C43.605 78.7508 43.5609 78.7803 43.5237 78.8175L41.0915 81.2481C41.0538 81.285 41.0239 81.3291 41.0034 81.3777C40.983 81.4264 40.9724 81.4786 40.9724 81.5313C40.9724 81.5841 40.983 81.6363 41.0034 81.685C41.0239 81.7336 41.0538 81.7777 41.0915 81.8146C41.129 81.8523 41.1738 81.8819 41.2231 81.9017C41.2725 81.9215 41.3254 81.931 41.3785 81.9298Z" fill="white"/>
<path d="M299.234 119.869H306.289V125.717H299.234V119.869Z" fill="white"/>
<path d="M299.234 140.097H306.289V145.945H299.234V140.097Z" fill="white"/>
<path d="M299.234 160.325H306.289V166.173H299.234V160.325Z" fill="white"/>
<path d="M299.234 180.553H306.289V186.402H299.234V180.553Z" fill="white"/>
<path d="M299.234 200.781H306.289V206.63H299.234V200.781Z" fill="white"/>
<path d="M299.234 221.009H306.289V226.858H299.234V221.009Z" fill="white"/>
<path d="M299.234 241.236H306.289V247.085H299.234V241.236Z" fill="white"/>
<path d="M220.711 221.009H278.711V226.858H220.711V221.009Z" fill="url(#paint30_linear_8104_9133)"/>
<path d="M151.741 221.009H211.515V226.858H151.741V221.009Z" fill="white"/>
<path d="M147.386 241.236H235.603V247.085H147.386V241.236Z" fill="url(#paint31_linear_8104_9133)"/>
<path d="M143.088 200.781H251.246V206.63H143.088V200.781Z" fill="white"/>
<path d="M65.4344 200.781H134.875V206.63H65.4344V200.781Z" fill="url(#paint32_linear_8104_9133)"/>
<path d="M207.147 180.553H241.144V186.402H207.147V180.553Z" fill="url(#paint33_linear_8104_9133)"/>
<path d="M119.528 180.553H183.952V186.402H119.528V180.553Z" fill="url(#paint34_linear_8104_9133)"/>
<path d="M237.697 160.325H278.711V166.173H237.697V160.325Z" fill="url(#paint35_linear_8104_9133)"/>
<path d="M161.333 160.325H222.43V166.173H161.333V160.325Z" fill="white"/>
<path d="M120.686 160.325H145.957V166.173H120.686V160.325Z" fill="url(#paint36_linear_8104_9133)"/>
<path d="M218.566 140.097H278.711V145.945H218.566V140.097Z" fill="white"/>
<path d="M100.953 140.097H202.779V145.945H100.953V140.097Z" fill="url(#paint37_linear_8104_9133)"/>
<path d="M210.056 119.869H270.2V125.717H210.056V119.869Z" fill="url(#paint38_linear_8104_9133)"/>
<path d="M162.508 119.868H197.588V125.717H162.508V119.868Z" fill="url(#paint39_linear_8104_9133)"/>
<path d="M110.681 119.869H145.762V125.717H110.681V119.869Z" fill="url(#paint40_linear_8104_9133)"/>
<path d="M524.231 130.435H701.293C706.83 130.435 711.32 134.924 711.32 140.463V244.052C711.32 249.59 706.83 254.08 701.293 254.08H524.231C518.693 254.08 514.204 249.59 514.204 244.052V140.463C514.204 134.924 518.693 130.435 524.231 130.435Z" fill="url(#paint41_linear_8104_9133)"/>
<path d="M626.122 178.717L680.745 157.242L680.061 155.499L626.18 176.683L599.035 164.164L571.867 175.903L545.09 166.156L544.449 167.914L571.923 177.916L599.01 166.213L626.122 178.717Z" fill="white"/>
<path d="M673.996 172.985H687.162C688.02 172.985 688.716 173.681 688.716 174.54V230.208C688.716 231.066 688.02 231.762 687.162 231.762H673.996C673.138 231.762 672.442 231.066 672.442 230.208V174.54C672.442 173.681 673.138 172.985 673.996 172.985Z" fill="white"/>
<path d="M646.869 180.143H660.035C660.894 180.143 661.589 180.838 661.589 181.697V230.207C661.589 231.066 660.894 231.762 660.035 231.762H646.869C646.011 231.762 645.315 231.066 645.315 230.207V181.697C645.315 180.838 646.011 180.143 646.869 180.143Z" fill="white"/>
<path d="M619.743 191.064H632.909C633.767 191.064 634.463 191.76 634.463 192.618V230.207C634.463 231.066 633.767 231.762 632.909 231.762H619.743C618.885 231.762 618.189 231.066 618.189 230.207V192.618C618.189 191.76 618.885 191.064 619.743 191.064Z" fill="white"/>
<path d="M565.489 194.014H578.654C579.513 194.014 580.208 194.71 580.208 195.568V230.209C580.208 231.068 579.513 231.763 578.654 231.763H565.489C564.63 231.763 563.934 231.068 563.934 230.209V195.568C563.934 194.71 564.63 194.014 565.489 194.014Z" fill="white"/>
<path d="M592.615 184.185H605.78C606.639 184.185 607.334 184.88 607.334 185.739V230.21C607.334 231.068 606.639 231.764 605.78 231.764H592.615C591.756 231.764 591.06 231.068 591.06 230.21V185.739C591.06 184.88 591.756 184.185 592.615 184.185Z" fill="white"/>
<path d="M538.362 184.185H551.527C552.386 184.185 553.082 184.88 553.082 185.739V230.21C553.082 231.068 552.386 231.764 551.527 231.764H538.362C537.503 231.764 536.808 231.068 536.808 230.21V185.739C536.808 184.88 537.503 184.185 538.362 184.185Z" fill="white"/>
<path d="M623.899 179.657C622.559 178.317 622.559 176.144 623.899 174.804C625.239 173.464 627.412 173.464 628.752 174.804C630.091 176.144 630.091 178.317 628.752 179.657C627.412 180.997 625.239 180.997 623.899 179.657Z" fill="url(#paint42_linear_8104_9133)"/>
<path d="M568.742 177.787C568.307 175.942 569.449 174.094 571.293 173.659C573.138 173.223 574.986 174.366 575.421 176.21C575.856 178.055 574.714 179.903 572.87 180.338C571.025 180.773 569.177 179.631 568.742 177.787Z" fill="url(#paint43_linear_8104_9133)"/>
<path d="M677.364 156.803C677.06 154.932 678.33 153.17 680.201 152.866C682.071 152.562 683.834 153.833 684.137 155.703C684.441 157.574 683.171 159.336 681.3 159.64C679.43 159.944 677.667 158.673 677.364 156.803Z" fill="url(#paint44_linear_8104_9133)"/>
<path d="M599.024 169.312C597.129 169.312 595.593 167.776 595.593 165.881C595.593 163.986 597.129 162.449 599.024 162.449C600.919 162.449 602.455 163.986 602.455 165.881C602.455 167.776 600.919 169.312 599.024 169.312Z" fill="url(#paint45_linear_8104_9133)"/>
<path d="M542.343 170.15C541.003 168.81 541.003 166.637 542.343 165.297C543.683 163.957 545.855 163.957 547.195 165.297C548.535 166.637 548.535 168.81 547.195 170.15C545.855 171.49 543.683 171.49 542.343 170.15Z" fill="url(#paint46_linear_8104_9133)"/>
<path d="M421.39 22.3941C421.601 22.3941 421.803 22.3106 421.951 22.1618C422.1 22.0131 422.184 21.8113 422.184 21.601V15.4991C422.179 11.3904 420.544 7.45129 417.64 4.54578C414.735 1.64026 410.796 0.00549732 406.688 0L400.713 0C400.502 0 400.301 0.083567 400.152 0.232317C400.003 0.381068 399.92 0.582816 399.92 0.793181C399.92 1.00355 400.003 1.20529 400.152 1.35404C400.301 1.50279 400.502 1.58636 400.713 1.58636H406.678C410.366 1.59036 413.902 3.05751 416.51 5.66585C419.118 8.27419 420.584 11.8106 420.588 15.4991V21.601C420.588 21.7059 420.609 21.8098 420.649 21.9067C420.69 22.0035 420.749 22.0914 420.824 22.1652C420.898 22.239 420.987 22.2972 421.084 22.3365C421.181 22.3758 421.286 22.3954 421.39 22.3941Z" fill="url(#paint47_linear_8104_9133)"/>
<path d="M302.078 22.3241C302.182 22.3244 302.285 22.3041 302.381 22.2643C302.478 22.2245 302.565 22.1661 302.639 22.0924C302.713 22.0187 302.771 21.9311 302.811 21.8348C302.851 21.7385 302.871 21.6352 302.871 21.531V15.567C302.875 11.8783 304.342 8.34189 306.95 5.73361C309.558 3.12532 313.094 1.65823 316.782 1.65423H322.886C323.096 1.65423 323.298 1.57067 323.446 1.42192C323.595 1.27317 323.679 1.07142 323.679 0.861052C323.679 0.650687 323.595 0.448939 323.446 0.300188C323.298 0.151438 323.096 0.0678711 322.886 0.0678711H316.782C312.674 0.0728698 308.735 1.70747 305.83 4.6131C302.925 7.51872 301.291 11.4581 301.286 15.567V21.5291C301.286 21.6333 301.306 21.7366 301.346 21.8331C301.385 21.9295 301.443 22.0172 301.517 22.0911C301.59 22.1649 301.678 22.2236 301.774 22.2636C301.87 22.3036 301.973 22.3242 302.078 22.3241Z" fill="url(#paint48_linear_8104_9133)"/>
<path d="M316.783 89.3122H322.748C322.958 89.3122 323.16 89.2287 323.309 89.0799C323.457 88.9312 323.541 88.7294 323.541 88.519C323.541 88.3087 323.457 88.1069 323.309 87.9582C323.16 87.8094 322.958 87.7259 322.748 87.7259H316.783C313.094 87.7219 309.559 86.255 306.951 83.6472C304.343 81.0393 302.875 77.5033 302.871 73.815V67.7113C302.876 67.604 302.86 67.4967 302.822 67.3961C302.785 67.2954 302.727 67.2034 302.653 67.1256C302.579 67.0478 302.49 66.9858 302.391 66.9435C302.292 66.9012 302.186 66.8794 302.079 66.8794C301.971 66.8794 301.865 66.9012 301.766 66.9435C301.668 66.9858 301.578 67.0478 301.504 67.1256C301.43 67.2034 301.373 67.2954 301.335 67.3961C301.298 67.4967 301.281 67.604 301.287 67.7113V73.815C301.292 77.9236 302.926 81.8625 305.831 84.7677C308.736 87.6729 312.674 89.3072 316.783 89.3122Z" fill="url(#paint49_linear_8104_9133)"/>
<path d="M400.584 89.2441H406.688C410.796 89.2386 414.735 87.6038 417.64 84.6983C420.544 81.7928 422.179 77.8537 422.184 73.7449V67.781C422.184 67.5706 422.1 67.3689 421.951 67.2201C421.803 67.0714 421.601 66.9878 421.39 66.9878C421.18 66.9878 420.978 67.0714 420.83 67.2201C420.681 67.3689 420.597 67.5706 420.597 67.781V73.7449C420.594 77.4334 419.127 80.9699 416.52 83.5782C413.912 86.1866 410.376 87.6537 406.688 87.6577H400.584C400.48 87.6577 400.377 87.6782 400.281 87.7181C400.185 87.758 400.097 87.8164 400.024 87.89C399.95 87.9637 399.892 88.0511 399.852 88.1474C399.812 88.2436 399.791 88.3467 399.791 88.4509C399.791 88.5551 399.812 88.6582 399.852 88.7544C399.892 88.8507 399.95 88.9381 400.024 89.0118C400.097 89.0854 400.185 89.1438 400.281 89.1837C400.377 89.2236 400.48 89.2441 400.584 89.2441Z" fill="url(#paint50_linear_8104_9133)"/>
<path d="M316.782 8.27734H406.687C410.675 8.27734 413.907 11.5098 413.907 15.4972V73.8148C413.907 77.8023 410.675 81.0347 406.687 81.0347H316.782C312.795 81.0347 309.563 77.8023 309.563 73.8148V15.4972C309.563 11.5098 312.795 8.27734 316.782 8.27734Z" fill="url(#paint51_linear_8104_9133)"/>
<path d="M480.67 78.0092C480.774 78.0095 480.878 77.9891 480.974 77.9494C481.07 77.9096 481.158 77.8512 481.232 77.7775C481.305 77.7038 481.364 77.6162 481.404 77.5199C481.443 77.4235 481.464 77.3203 481.463 77.2161V70.4627C481.458 67.0139 480.086 63.7079 477.647 61.2693C475.209 58.8306 471.903 57.4581 468.454 57.4526H460.402C460.192 57.4526 459.99 57.5362 459.842 57.685C459.693 57.8337 459.609 58.0355 459.609 58.2458C459.609 58.4562 459.693 58.6579 459.842 58.8067C459.99 58.9554 460.192 59.039 460.402 59.039H468.454C471.483 59.042 474.387 60.2465 476.528 62.3882C478.67 64.5299 479.874 67.4339 479.877 70.4627V77.2161C479.877 77.3203 479.897 77.4235 479.937 77.5199C479.977 77.6162 480.035 77.7038 480.109 77.7775C480.183 77.8512 480.27 77.9096 480.366 77.9494C480.463 77.9891 480.566 78.0095 480.67 78.0092Z" fill="url(#paint52_linear_8104_9133)"/>
<path d="M322.478 32H326.523C326.787 32 327 32.5411 327 33.2087V67.7913C327 68.4589 326.787 69 326.523 69H322.478C322.214 69 322 68.4589 322 67.7913V33.2087C322 32.5411 322.214 32 322.478 32Z" fill="white"/>
<path d="M337.478 50H341.523C341.787 50 342 50.2779 342 50.6207V68.3793C342 68.7221 341.787 69 341.523 69H337.478C337.214 69 337 68.7221 337 68.3793V50.6207C337 50.2779 337.214 50 337.478 50Z" fill="white"/>
<path d="M352.478 63H356.523C356.787 63 357 63.0878 357 63.196V68.804C357 68.9122 356.787 69 356.523 69H352.478C352.214 69 352 68.9122 352 68.804V63.196C352 63.0878 352.214 63 352.478 63Z" fill="white"/>
<path d="M367.478 39H371.523C371.787 39 372 39.4388 372 39.98V68.02C372 68.5612 371.787 69 371.523 69H367.478C367.214 69 367 68.5612 367 68.02V39.98C367 39.4388 367.214 39 367.478 39Z" fill="white"/>
<path d="M382.478 46H386.523C386.787 46 387 46.3364 387 46.7513V68.2487C387 68.6636 386.787 69 386.523 69H382.478C382.214 69 382 68.6636 382 68.2487V46.7513C382 46.3364 382.214 46 382.478 46Z" fill="white"/>
<path d="M397.478 53H401.523C401.787 53 402 53.234 402 53.5227V68.4773C402 68.766 401.787 69 401.523 69H397.478C397.214 69 397 68.766 397 68.4773V53.5227C397 53.234 397.214 53 397.478 53Z" fill="white"/>
<path d="M391.499 79.3067C391.71 79.3067 391.911 79.2231 392.06 79.0743C392.209 78.9256 392.292 78.7238 392.292 78.5135V70.4627C392.295 67.4339 393.5 64.5299 395.641 62.3882C397.783 60.2465 400.687 59.042 403.715 59.039H410.468C410.678 59.039 410.88 58.9554 411.029 58.8067C411.178 58.6579 411.261 58.4562 411.261 58.2458C411.261 58.0355 411.178 57.8337 411.029 57.685C410.88 57.5362 410.678 57.4526 410.468 57.4526H403.715C400.266 57.4576 396.96 58.8299 394.521 61.2686C392.083 63.7073 390.71 67.0136 390.704 70.4627V78.5135C390.704 78.6178 390.725 78.7211 390.765 78.8175C390.805 78.9138 390.864 79.0013 390.937 79.075C391.011 79.1487 391.099 79.2071 391.195 79.2468C391.292 79.2866 391.395 79.3069 391.499 79.3067Z" fill="url(#paint53_linear_8104_9133)"/>
<path d="M403.715 121.684H411.765C411.976 121.684 412.178 121.6 412.326 121.451C412.475 121.302 412.559 121.101 412.559 120.89C412.559 120.68 412.475 120.478 412.326 120.329C412.178 120.181 411.976 120.097 411.765 120.097H403.715C400.687 120.094 397.783 118.89 395.642 116.748C393.5 114.606 392.296 111.702 392.293 108.673V101.918C392.293 101.708 392.209 101.506 392.06 101.357C391.912 101.209 391.71 101.125 391.499 101.125C391.289 101.125 391.087 101.209 390.939 101.357C390.79 101.506 390.706 101.708 390.706 101.918V108.673C390.712 112.122 392.084 115.428 394.523 117.867C396.961 120.306 400.267 121.678 403.715 121.684Z" fill="url(#paint54_linear_8104_9133)"/>
<path d="M461.707 121.684H468.462C471.91 121.678 475.216 120.306 477.654 117.867C480.093 115.428 481.465 112.122 481.471 108.674V100.623C481.471 100.412 481.387 100.211 481.238 100.062C481.09 99.9132 480.888 99.8296 480.678 99.8296C480.467 99.8296 480.265 99.9132 480.117 100.062C479.968 100.211 479.884 100.412 479.884 100.623V108.674C479.881 111.702 478.677 114.606 476.536 116.748C474.394 118.89 471.49 120.094 468.462 120.097H461.707C461.497 120.097 461.295 120.181 461.146 120.33C460.997 120.478 460.914 120.68 460.914 120.89C460.914 121.101 460.997 121.303 461.146 121.451C461.295 121.6 461.497 121.684 461.707 121.684Z" fill="url(#paint55_linear_8104_9133)"/>
<path d="M403.715 65.73H468.454C471.067 65.73 473.185 67.848 473.185 70.4607V108.673C473.185 111.286 471.067 113.404 468.454 113.404H403.715C401.103 113.404 398.985 111.286 398.985 108.673V70.4607C398.985 67.848 401.103 65.73 403.715 65.73Z" fill="url(#paint56_linear_8104_9133)"/>
<path d="M168.037 280.705C168.247 280.705 168.449 280.621 168.598 280.473C168.747 280.324 168.83 280.122 168.83 279.912V273.34C168.826 269.471 167.288 265.762 164.553 263.026C161.817 260.291 158.109 258.752 154.241 258.747H145.39C145.179 258.747 144.978 258.831 144.829 258.979C144.68 259.128 144.597 259.33 144.597 259.54C144.597 259.751 144.68 259.952 144.829 260.101C144.978 260.25 145.179 260.333 145.39 260.333H154.241C157.687 260.34 160.991 261.713 163.428 264.151C165.865 266.588 167.237 269.893 167.244 273.34V279.912C167.244 280.122 167.327 280.324 167.476 280.473C167.625 280.621 167.827 280.705 168.037 280.705Z" fill="url(#paint57_linear_8104_9133)"/>
<path d="M61.8145 282.983C62.0249 282.983 62.2266 282.899 62.3753 282.75C62.5241 282.601 62.6076 282.4 62.6076 282.189V273.34C62.6141 269.893 63.9861 266.588 66.4232 264.151C68.8604 261.713 72.1641 260.34 75.6109 260.333H82.1825C82.3928 260.333 82.5946 260.25 82.7433 260.101C82.8921 259.952 82.9756 259.751 82.9756 259.54C82.9756 259.33 82.8921 259.128 82.7433 258.979C82.5946 258.831 82.3928 258.747 82.1825 258.747H75.6109C71.7426 258.752 68.034 260.291 65.2989 263.026C62.5637 265.762 61.0254 269.471 61.0214 273.34V282.189C61.0214 282.4 61.1049 282.601 61.2537 282.75C61.4024 282.899 61.6042 282.983 61.8145 282.983Z" fill="url(#paint58_linear_8104_9133)"/>
<path d="M75.611 338.935H84.4618C84.6721 338.935 84.8738 338.852 85.0226 338.703C85.1713 338.554 85.2549 338.353 85.2549 338.142C85.2549 337.932 85.1713 337.73 85.0226 337.581C84.8738 337.433 84.6721 337.349 84.4618 337.349H75.611C72.1637 337.342 68.8598 335.969 66.4226 333.531C63.9854 331.093 62.6136 327.788 62.6076 324.341V317.771C62.6076 317.56 62.5241 317.359 62.3753 317.21C62.2266 317.061 62.0249 316.978 61.8145 316.978C61.6042 316.978 61.4024 317.061 61.2537 317.21C61.105 317.359 61.0214 317.56 61.0214 317.771V324.341C61.0254 328.21 62.5637 331.919 65.2988 334.655C68.0339 337.391 71.7424 338.93 75.611 338.935Z" fill="url(#paint59_linear_8104_9133)"/>
<path d="M147.671 338.936H154.243C158.111 338.932 161.82 337.393 164.556 334.657C167.291 331.921 168.83 328.212 168.834 324.343V315.491C168.834 315.281 168.75 315.079 168.602 314.931C168.453 314.782 168.251 314.698 168.041 314.698C167.831 314.698 167.629 314.782 167.48 314.931C167.331 315.079 167.248 315.281 167.248 315.491V324.343C167.241 327.79 165.869 331.095 163.431 333.533C160.994 335.97 157.69 337.343 154.243 337.349H147.671C147.461 337.349 147.259 337.433 147.11 337.582C146.961 337.73 146.878 337.932 146.878 338.142C146.878 338.353 146.961 338.555 147.11 338.703C147.259 338.852 147.461 338.936 147.671 338.936Z" fill="url(#paint60_linear_8104_9133)"/>
<path d="M75.6128 267.026H154.239C157.727 267.026 160.554 269.854 160.554 273.342V324.341C160.554 327.829 157.727 330.656 154.239 330.656H75.6128C72.1253 330.656 69.2981 327.829 69.2981 324.341V273.342C69.2981 269.854 72.1253 267.026 75.6128 267.026Z" fill="url(#paint61_linear_8104_9133)"/>
<path d="M570.995 367.923L589.72 386.242L570.995 404.56C570.327 405.211 569.797 405.989 569.435 406.849C569.073 407.708 568.887 408.631 568.887 409.563V417.03H617.943V409.563C617.944 408.631 617.759 407.708 617.398 406.849C617.037 405.99 616.508 405.212 615.842 404.56L597.113 386.242L615.842 367.923C616.507 367.271 617.036 366.493 617.397 365.634C617.758 364.774 617.944 363.852 617.943 362.92V355.447H568.887V362.92C568.888 363.852 569.075 364.775 569.437 365.634C569.799 366.493 570.328 367.271 570.995 367.923Z" fill="url(#paint62_linear_8104_9133)"/>
<path d="M606.545 371.541L593.416 384.383L580.289 371.541H606.545Z" fill="url(#paint63_linear_8104_9133)"/>
<path d="M619.434 347.028H567.403C566.972 347.028 566.559 347.199 566.254 347.504C565.949 347.809 565.777 348.223 565.777 348.654V353.825C565.777 354.256 565.949 354.669 566.254 354.974C566.559 355.279 566.972 355.451 567.403 355.451H619.434C619.864 355.451 620.277 355.28 620.582 354.975C620.887 354.67 621.058 354.257 621.058 353.827V348.656C621.058 348.442 621.016 348.231 620.935 348.033C620.854 347.836 620.734 347.656 620.583 347.505C620.432 347.354 620.253 347.234 620.056 347.152C619.859 347.07 619.647 347.028 619.434 347.028Z" fill="url(#paint64_linear_8104_9133)"/>
<path d="M609.402 413.122V411.168C609.39 410.923 609.318 410.685 609.193 410.474C609.068 410.263 608.894 410.086 608.685 409.957L593.419 399.372L578.152 409.957C577.942 410.086 577.767 410.263 577.642 410.474C577.516 410.686 577.445 410.924 577.432 411.17V413.122H609.402Z" fill="url(#paint65_linear_8104_9133)"/>
<path d="M619.434 417.038H567.403C566.972 417.038 566.559 417.209 566.254 417.514C565.949 417.819 565.777 418.232 565.777 418.664V423.834C565.777 424.265 565.949 424.678 566.253 424.983C566.558 425.287 566.971 425.459 567.401 425.459H619.434C619.647 425.459 619.859 425.416 620.056 425.335C620.253 425.253 620.432 425.133 620.583 424.982C620.734 424.831 620.854 424.652 620.936 424.455C621.018 424.257 621.06 424.046 621.06 423.833V418.662C621.059 418.231 620.888 417.818 620.583 417.513C620.278 417.209 619.865 417.038 619.434 417.038Z" fill="url(#paint66_linear_8104_9133)"/>
<path d="M592.247 386.215C592.24 386.373 592.266 386.53 592.322 386.677C592.378 386.825 592.463 386.959 592.572 387.073C592.682 387.187 592.813 387.277 592.958 387.339C593.103 387.401 593.259 387.433 593.417 387.433C593.574 387.433 593.73 387.401 593.875 387.339C594.021 387.277 594.152 387.187 594.261 387.073C594.37 386.959 594.455 386.825 594.511 386.677C594.567 386.53 594.593 386.373 594.586 386.215C594.586 385.571 593.416 384.264 593.416 384.264C593.416 384.264 592.247 385.571 592.247 386.215Z" fill="url(#paint67_linear_8104_9133)"/>
<path d="M592.874 390.838C592.868 390.986 592.891 391.134 592.944 391.273C592.996 391.411 593.076 391.538 593.179 391.645C593.281 391.752 593.404 391.837 593.541 391.895C593.677 391.953 593.824 391.983 593.972 391.983C594.12 391.983 594.267 391.953 594.403 391.895C594.539 391.837 594.662 391.752 594.765 391.645C594.867 391.538 594.947 391.411 595 391.273C595.052 391.134 595.076 390.986 595.07 390.838C595.07 390.234 593.971 389.006 593.971 389.006C593.971 389.006 592.874 390.234 592.874 390.838Z" fill="url(#paint68_linear_8104_9133)"/>
<path d="M590.946 393.416C590.94 393.536 590.959 393.655 591.001 393.768C591.043 393.88 591.107 393.983 591.19 394.07C591.273 394.156 591.373 394.226 591.483 394.273C591.593 394.32 591.712 394.344 591.832 394.344C591.952 394.344 592.071 394.32 592.181 394.273C592.292 394.226 592.391 394.156 592.474 394.07C592.557 393.983 592.621 393.88 592.663 393.768C592.705 393.655 592.724 393.536 592.719 393.416C592.719 392.928 591.833 391.937 591.833 391.937C591.833 391.937 590.946 392.928 590.946 393.416Z" fill="url(#paint69_linear_8104_9133)"/>
<path d="M593.417 396.343C593.412 396.463 593.431 396.583 593.473 396.695C593.515 396.807 593.579 396.91 593.662 396.997C593.745 397.084 593.844 397.153 593.955 397.2C594.065 397.247 594.184 397.271 594.304 397.271C594.424 397.271 594.543 397.247 594.653 397.2C594.763 397.153 594.863 397.084 594.946 396.997C595.029 396.91 595.093 396.807 595.135 396.695C595.177 396.583 595.196 396.463 595.19 396.343C595.19 395.854 594.303 394.864 594.303 394.864C594.303 394.864 593.417 395.854 593.417 396.343Z" fill="url(#paint70_linear_8104_9133)"/>
<path d="M124.343 305L154 292.976L153.629 292L124.375 303.861L109.637 296.851L94.8864 303.424L80.3481 297.967L80.0005 298.952L94.9172 304.552L109.624 297.999L124.343 305Z" fill="white"/>
<path d="M79.4143 300.242C78.6332 299.461 78.6332 298.195 79.4143 297.414C80.1953 296.633 81.4616 296.633 82.2426 297.414C83.0236 298.195 83.0236 299.461 82.2426 300.242C81.4616 301.023 80.1953 301.023 79.4143 300.242Z" fill="url(#paint71_linear_8104_9133)"/>
<path d="M93.4143 305.242C92.6332 304.461 92.6332 303.195 93.4143 302.414C94.1953 301.633 95.4616 301.633 96.2426 302.414C97.0236 303.195 97.0236 304.461 96.2426 305.242C95.4616 306.023 94.1953 306.023 93.4143 305.242Z" fill="url(#paint72_linear_8104_9133)"/>
<path d="M108.414 299.242C107.633 298.461 107.633 297.195 108.414 296.414C109.195 295.633 110.462 295.633 111.243 296.414C112.024 297.195 112.024 298.461 111.243 299.242C110.462 300.023 109.195 300.023 108.414 299.242Z" fill="url(#paint73_linear_8104_9133)"/>
<path d="M123.414 306.242C122.633 305.461 122.633 304.195 123.414 303.414C124.195 302.633 125.462 302.633 126.243 303.414C127.024 304.195 127.024 305.461 126.243 306.242C125.462 307.023 124.195 307.023 123.414 306.242Z" fill="url(#paint74_linear_8104_9133)"/>
<path d="M152.414 294.242C151.633 293.461 151.633 292.195 152.414 291.414C153.195 290.633 154.462 290.633 155.243 291.414C156.024 292.195 156.024 293.461 155.243 294.242C154.462 295.023 153.195 295.023 152.414 294.242Z" fill="url(#paint75_linear_8104_9133)"/>
<line x1="74.5" y1="279" x2="74.5" y2="325" stroke="white"/>
<line x1="154" y1="324.5" x2="75" y2="324.5" stroke="white"/>
</g>
<defs>
<linearGradient id="paint0_linear_8104_9133" x1="433.725" y1="319.168" x2="293.923" y2="400.551" gradientUnits="userSpaceOnUse">
<stop stop-color="#FF8888"/>
<stop offset="1" stop-color="#F24E4E"/>
</linearGradient>
<linearGradient id="paint1_linear_8104_9133" x1="275.85" y1="663.362" x2="205.453" y2="654.544" gradientUnits="userSpaceOnUse">
<stop stop-color="#78A7FF"/>
<stop offset="1" stop-color="#3D79F3"/>
</linearGradient>
<linearGradient id="paint2_linear_8104_9133" x1="253.69" y1="524.971" x2="411.686" y2="535.008" gradientUnits="userSpaceOnUse">
<stop stop-color="#771E24"/>
<stop offset="1" stop-color="#47090E"/>
</linearGradient>
<linearGradient id="paint3_linear_8104_9133" x1="436.312" y1="694.211" x2="430.389" y2="569.147" gradientUnits="userSpaceOnUse">
<stop stop-color="#E7ECFF"/>
<stop offset="1" stop-color="#C2D5FF"/>
</linearGradient>
<linearGradient id="paint4_linear_8104_9133" x1="560.184" y1="391.722" x2="346.148" y2="391.722" gradientUnits="userSpaceOnUse">
<stop stop-color="#E7ECFF"/>
<stop offset="1" stop-color="#C2D5FF"/>
</linearGradient>
<linearGradient id="paint5_linear_8104_9133" x1="462.791" y1="272.917" x2="454.188" y2="435.998" gradientUnits="userSpaceOnUse">
<stop stop-color="#FF8888"/>
<stop offset="1" stop-color="#F24E4E"/>
</linearGradient>
<linearGradient id="paint6_linear_8104_9133" x1="339.838" y1="661.135" x2="268.895" y2="661.135" gradientUnits="userSpaceOnUse">
<stop stop-color="#78A7FF"/>
<stop offset="1" stop-color="#3D79F3"/>
</linearGradient>
<linearGradient id="paint7_linear_8104_9133" x1="415.202" y1="538.887" x2="409.091" y2="398.774" gradientUnits="userSpaceOnUse">
<stop stop-color="#771E24"/>
<stop offset="1" stop-color="#47090E"/>
</linearGradient>
<linearGradient id="paint8_linear_8104_9133" x1="492.677" y1="195.889" x2="422.875" y2="195.889" gradientUnits="userSpaceOnUse">
<stop stop-color="#771E24"/>
<stop offset="1" stop-color="#47090E"/>
</linearGradient>
<linearGradient id="paint9_linear_8104_9133" x1="438.722" y1="207.285" x2="429.951" y2="207.285" gradientUnits="userSpaceOnUse">
<stop stop-color="#771E24"/>
<stop offset="1" stop-color="#47090E"/>
</linearGradient>
<linearGradient id="paint10_linear_8104_9133" x1="453.292" y1="207.285" x2="444.519" y2="207.285" gradientUnits="userSpaceOnUse">
<stop stop-color="#771E24"/>
<stop offset="1" stop-color="#47090E"/>
</linearGradient>
<linearGradient id="paint11_linear_8104_9133" x1="700.345" y1="425.827" x2="27.8784" y2="425.827" gradientUnits="userSpaceOnUse">
<stop stop-color="#E7ECFF"/>
<stop offset="1" stop-color="#C2D5FF"/>
</linearGradient>
<linearGradient id="paint12_linear_8104_9133" x1="72.1947" y1="465.886" x2="82.9791" y2="631.249" gradientUnits="userSpaceOnUse">
<stop stop-color="#E7ECFF"/>
<stop offset="1" stop-color="#C2D5FF"/>
</linearGradient>
<linearGradient id="paint13_linear_8104_9133" x1="149.04" y1="459.735" x2="159.824" y2="625.1" gradientUnits="userSpaceOnUse">
<stop stop-color="#E7ECFF"/>
<stop offset="1" stop-color="#C2D5FF"/>
</linearGradient>
<linearGradient id="paint14_linear_8104_9133" x1="661.554" y1="428.157" x2="672.34" y2="593.52" gradientUnits="userSpaceOnUse">
<stop stop-color="#E7ECFF"/>
<stop offset="1" stop-color="#C2D5FF"/>
</linearGradient>
<linearGradient id="paint15_linear_8104_9133" x1="583.855" y1="434.308" x2="594.641" y2="599.671" gradientUnits="userSpaceOnUse">
<stop stop-color="#E7ECFF"/>
<stop offset="1" stop-color="#C2D5FF"/>
</linearGradient>
<linearGradient id="paint16_linear_8104_9133" x1="158.956" y1="409.944" x2="103.466" y2="409.944" gradientUnits="userSpaceOnUse">
<stop stop-color="#A7C161"/>
<stop offset="1" stop-color="#8BA53A"/>
</linearGradient>
<linearGradient id="paint17_linear_8104_9133" x1="158.956" y1="409.944" x2="107.539" y2="409.944" gradientUnits="userSpaceOnUse">
<stop stop-color="#E7ECFF"/>
<stop offset="1" stop-color="#C2D5FF"/>
</linearGradient>
<linearGradient id="paint18_linear_8104_9133" x1="114.353" y1="409.952" x2="49.2924" y2="409.952" gradientUnits="userSpaceOnUse">
<stop stop-color="#A7C161"/>
<stop offset="1" stop-color="#8BA53A"/>
</linearGradient>
<linearGradient id="paint19_linear_8104_9133" x1="525.154" y1="334.198" x2="435.48" y2="406.101" gradientUnits="userSpaceOnUse">
<stop stop-color="#FF8888"/>
<stop offset="1" stop-color="#F24E4E"/>
</linearGradient>
<linearGradient id="paint20_linear_8104_9133" x1="792.161" y1="662.642" x2="733.96" y2="662.642" gradientUnits="userSpaceOnUse">
<stop stop-color="#E7ECFF"/>
<stop offset="1" stop-color="#C2D5FF"/>
</linearGradient>
<linearGradient id="paint21_linear_8104_9133" x1="791.85" y1="633.941" x2="734.269" y2="633.941" gradientUnits="userSpaceOnUse">
<stop stop-color="#E7ECFF"/>
<stop offset="1" stop-color="#C2D5FF"/>
</linearGradient>
<linearGradient id="paint22_linear_8104_9133" x1="779.466" y1="572.596" x2="746.242" y2="569.274" gradientUnits="userSpaceOnUse">
<stop stop-color="#E7ECFF"/>
<stop offset="1" stop-color="#C2D5FF"/>
</linearGradient>
<linearGradient id="paint23_linear_8104_9133" x1="796.492" y1="594.501" x2="774.122" y2="582.931" gradientUnits="userSpaceOnUse">
<stop stop-color="#E7ECFF"/>
<stop offset="1" stop-color="#C2D5FF"/>
</linearGradient>
<linearGradient id="paint24_linear_8104_9133" x1="752.952" y1="586.39" x2="729.668" y2="595.99" gradientUnits="userSpaceOnUse">
<stop stop-color="#E7ECFF"/>
<stop offset="1" stop-color="#C2D5FF"/>
</linearGradient>
<linearGradient id="paint25_linear_8104_9133" x1="367.84" y1="363.285" x2="147.71" y2="383.572" gradientUnits="userSpaceOnUse">
<stop stop-color="#78A7FF"/>
<stop offset="1" stop-color="#3D79F3"/>
</linearGradient>
<linearGradient id="paint26_linear_8104_9133" x1="276.241" y1="370.229" x2="250.797" y2="370.229" gradientUnits="userSpaceOnUse">
<stop stop-color="#E7ECFF"/>
<stop offset="1" stop-color="#C2D5FF"/>
</linearGradient>
<linearGradient id="paint27_linear_8104_9133" x1="173.581" y1="74.2794" x2="176.329" y2="303.382" gradientUnits="userSpaceOnUse">
<stop stop-color="#E7ECFF"/>
<stop offset="1" stop-color="#C2D5FF"/>
</linearGradient>
<linearGradient id="paint28_linear_8104_9133" x1="174.805" y1="97.533" x2="174.21" y2="38.9491" gradientUnits="userSpaceOnUse">
<stop stop-color="#B3B3FF"/>
<stop offset="1" stop-color="#8F8FEA"/>
</linearGradient>
<linearGradient id="paint29_linear_8104_9133" x1="208.114" y1="77.6808" x2="34.9052" y2="77.6808" gradientUnits="userSpaceOnUse">
<stop stop-color="#E7ECFF"/>
<stop offset="1" stop-color="#C2D5FF"/>
</linearGradient>
<linearGradient id="paint30_linear_8104_9133" x1="278.711" y1="223.932" x2="220.711" y2="223.932" gradientUnits="userSpaceOnUse">
<stop stop-color="#E7ECFF"/>
<stop offset="1" stop-color="#C2D5FF"/>
</linearGradient>
<linearGradient id="paint31_linear_8104_9133" x1="235.603" y1="244.16" x2="147.386" y2="244.16" gradientUnits="userSpaceOnUse">
<stop stop-color="#E7ECFF"/>
<stop offset="1" stop-color="#C2D5FF"/>
</linearGradient>
<linearGradient id="paint32_linear_8104_9133" x1="134.875" y1="203.706" x2="65.4325" y2="203.706" gradientUnits="userSpaceOnUse">
<stop stop-color="#E7ECFF"/>
<stop offset="1" stop-color="#C2D5FF"/>
</linearGradient>
<linearGradient id="paint33_linear_8104_9133" x1="241.144" y1="183.478" x2="207.147" y2="183.478" gradientUnits="userSpaceOnUse">
<stop stop-color="#E7ECFF"/>
<stop offset="1" stop-color="#C2D5FF"/>
</linearGradient>
<linearGradient id="paint34_linear_8104_9133" x1="183.952" y1="183.478" x2="119.528" y2="183.478" gradientUnits="userSpaceOnUse">
<stop stop-color="#E7ECFF"/>
<stop offset="1" stop-color="#C2D5FF"/>
</linearGradient>
<linearGradient id="paint35_linear_8104_9133" x1="278.711" y1="163.25" x2="237.696" y2="163.25" gradientUnits="userSpaceOnUse">
<stop stop-color="#E7ECFF"/>
<stop offset="1" stop-color="#C2D5FF"/>
</linearGradient>
<linearGradient id="paint36_linear_8104_9133" x1="145.957" y1="163.25" x2="120.686" y2="163.25" gradientUnits="userSpaceOnUse">
<stop stop-color="#E7ECFF"/>
<stop offset="1" stop-color="#C2D5FF"/>
</linearGradient>
<linearGradient id="paint37_linear_8104_9133" x1="202.779" y1="143.022" x2="100.953" y2="143.022" gradientUnits="userSpaceOnUse">
<stop stop-color="#E7ECFF"/>
<stop offset="1" stop-color="#C2D5FF"/>
</linearGradient>
<linearGradient id="paint38_linear_8104_9133" x1="270.2" y1="122.794" x2="210.056" y2="122.794" gradientUnits="userSpaceOnUse">
<stop stop-color="#E7ECFF"/>
<stop offset="1" stop-color="#C2D5FF"/>
</linearGradient>
<linearGradient id="paint39_linear_8104_9133" x1="197.588" y1="122.793" x2="162.508" y2="122.793" gradientUnits="userSpaceOnUse">
<stop stop-color="#E7ECFF"/>
<stop offset="1" stop-color="#C2D5FF"/>
</linearGradient>
<linearGradient id="paint40_linear_8104_9133" x1="145.762" y1="122.794" x2="110.681" y2="122.794" gradientUnits="userSpaceOnUse">
<stop stop-color="#E7ECFF"/>
<stop offset="1" stop-color="#C2D5FF"/>
</linearGradient>
<linearGradient id="paint41_linear_8104_9133" x1="611.931" y1="125.098" x2="613.706" y2="268.548" gradientUnits="userSpaceOnUse">
<stop stop-color="#E7ECFF"/>
<stop offset="1" stop-color="#C2D5FF"/>
</linearGradient>
<linearGradient id="paint42_linear_8104_9133" x1="629.757" y1="177.23" x2="622.895" y2="177.23" gradientUnits="userSpaceOnUse">
<stop stop-color="#B3B3FF"/>
<stop offset="1" stop-color="#8F8FEA"/>
</linearGradient>
<linearGradient id="paint43_linear_8104_9133" x1="575.519" y1="177.01" x2="568.657" y2="177.01" gradientUnits="userSpaceOnUse">
<stop stop-color="#B3B3FF"/>
<stop offset="1" stop-color="#8F8FEA"/>
</linearGradient>
<linearGradient id="paint44_linear_8104_9133" x1="684.174" y1="156.247" x2="677.312" y2="156.247" gradientUnits="userSpaceOnUse">
<stop stop-color="#B3B3FF"/>
<stop offset="1" stop-color="#8F8FEA"/>
</linearGradient>
<linearGradient id="paint45_linear_8104_9133" x1="602.453" y1="165.881" x2="595.593" y2="165.881" gradientUnits="userSpaceOnUse">
<stop stop-color="#B3B3FF"/>
<stop offset="1" stop-color="#8F8FEA"/>
</linearGradient>
<linearGradient id="paint46_linear_8104_9133" x1="548.2" y1="167.724" x2="541.338" y2="167.724" gradientUnits="userSpaceOnUse">
<stop stop-color="#B3B3FF"/>
<stop offset="1" stop-color="#8F8FEA"/>
</linearGradient>
<linearGradient id="paint47_linear_8104_9133" x1="422.184" y1="11.1971" x2="399.929" y2="11.1971" gradientUnits="userSpaceOnUse">
<stop stop-color="#E7ECFF"/>
<stop offset="1" stop-color="#C2D5FF"/>
</linearGradient>
<linearGradient id="paint48_linear_8104_9133" x1="312.481" y1="0.0678711" x2="312.481" y2="22.3241" gradientUnits="userSpaceOnUse">
<stop stop-color="#E7ECFF"/>
<stop offset="1" stop-color="#C2D5FF"/>
</linearGradient>
<linearGradient id="paint49_linear_8104_9133" x1="301.285" y1="78.117" x2="323.539" y2="78.117" gradientUnits="userSpaceOnUse">
<stop stop-color="#E7ECFF"/>
<stop offset="1" stop-color="#C2D5FF"/>
</linearGradient>
<linearGradient id="paint50_linear_8104_9133" x1="410.987" y1="89.2441" x2="410.987" y2="66.9878" gradientUnits="userSpaceOnUse">
<stop stop-color="#E7ECFF"/>
<stop offset="1" stop-color="#C2D5FF"/>
</linearGradient>
<linearGradient id="paint51_linear_8104_9133" x1="413.907" y1="44.656" x2="309.561" y2="44.656" gradientUnits="userSpaceOnUse">
<stop stop-color="#E7ECFF"/>
<stop offset="1" stop-color="#C2D5FF"/>
</linearGradient>
<linearGradient id="paint52_linear_8104_9133" x1="481.463" y1="67.7319" x2="459.609" y2="67.7319" gradientUnits="userSpaceOnUse">
<stop stop-color="#E7ECFF"/>
<stop offset="1" stop-color="#C2D5FF"/>
</linearGradient>
<linearGradient id="paint53_linear_8104_9133" x1="400.985" y1="57.4526" x2="400.985" y2="79.3067" gradientUnits="userSpaceOnUse">
<stop stop-color="#E7ECFF"/>
<stop offset="1" stop-color="#C2D5FF"/>
</linearGradient>
<linearGradient id="paint54_linear_8104_9133" x1="390.706" y1="111.404" x2="412.557" y2="111.404" gradientUnits="userSpaceOnUse">
<stop stop-color="#E7ECFF"/>
<stop offset="1" stop-color="#C2D5FF"/>
</linearGradient>
<linearGradient id="paint55_linear_8104_9133" x1="471.183" y1="121.682" x2="471.183" y2="99.8296" gradientUnits="userSpaceOnUse">
<stop stop-color="#E7ECFF"/>
<stop offset="1" stop-color="#C2D5FF"/>
</linearGradient>
<linearGradient id="paint56_linear_8104_9133" x1="473.185" y1="89.567" x2="398.983" y2="89.567" gradientUnits="userSpaceOnUse">
<stop stop-color="#E7ECFF"/>
<stop offset="1" stop-color="#C2D5FF"/>
</linearGradient>
<linearGradient id="paint57_linear_8104_9133" x1="168.83" y1="269.725" x2="144.597" y2="269.725" gradientUnits="userSpaceOnUse">
<stop stop-color="#E7ECFF"/>
<stop offset="1" stop-color="#C2D5FF"/>
</linearGradient>
<linearGradient id="paint58_linear_8104_9133" x1="71.9985" y1="258.747" x2="71.9985" y2="282.983" gradientUnits="userSpaceOnUse">
<stop stop-color="#E7ECFF"/>
<stop offset="1" stop-color="#C2D5FF"/>
</linearGradient>
<linearGradient id="paint59_linear_8104_9133" x1="61.0195" y1="327.957" x2="85.253" y2="327.957" gradientUnits="userSpaceOnUse">
<stop stop-color="#E7ECFF"/>
<stop offset="1" stop-color="#C2D5FF"/>
</linearGradient>
<linearGradient id="paint60_linear_8104_9133" x1="157.853" y1="338.934" x2="157.853" y2="314.698" gradientUnits="userSpaceOnUse">
<stop stop-color="#E7ECFF"/>
<stop offset="1" stop-color="#C2D5FF"/>
</linearGradient>
<linearGradient id="paint61_linear_8104_9133" x1="160.554" y1="298.84" x2="69.2981" y2="298.84" gradientUnits="userSpaceOnUse">
<stop stop-color="#E7ECFF"/>
<stop offset="1" stop-color="#C2D5FF"/>
</linearGradient>
<linearGradient id="paint62_linear_8104_9133" x1="593.602" y1="348.548" x2="593.132" y2="443.379" gradientUnits="userSpaceOnUse">
<stop stop-color="#E7ECFF"/>
<stop offset="1" stop-color="#C2D5FF"/>
</linearGradient>
<linearGradient id="paint63_linear_8104_9133" x1="609.809" y1="377.962" x2="577.026" y2="377.962" gradientUnits="userSpaceOnUse">
<stop stop-color="#FFBB83"/>
<stop offset="1" stop-color="#FF9D45"/>
</linearGradient>
<linearGradient id="paint64_linear_8104_9133" x1="593.317" y1="346.284" x2="593.544" y2="357.528" gradientUnits="userSpaceOnUse">
<stop stop-color="#E7ECFF"/>
<stop offset="1" stop-color="#C2D5FF"/>
</linearGradient>
<linearGradient id="paint65_linear_8104_9133" x1="609.402" y1="406.246" x2="577.432" y2="406.246" gradientUnits="userSpaceOnUse">
<stop stop-color="#FFBB83"/>
<stop offset="1" stop-color="#FF9D45"/>
</linearGradient>
<linearGradient id="paint66_linear_8104_9133" x1="593.385" y1="417.548" x2="593.463" y2="426.218" gradientUnits="userSpaceOnUse">
<stop stop-color="#E7ECFF"/>
<stop offset="1" stop-color="#C2D5FF"/>
</linearGradient>
<linearGradient id="paint67_linear_8104_9133" x1="594.586" y1="385.824" x2="592.247" y2="385.824" gradientUnits="userSpaceOnUse">
<stop stop-color="#FFBB83"/>
<stop offset="1" stop-color="#FF9D45"/>
</linearGradient>
<linearGradient id="paint68_linear_8104_9133" x1="595.07" y1="390.472" x2="592.874" y2="390.472" gradientUnits="userSpaceOnUse">
<stop stop-color="#FFBB83"/>
<stop offset="1" stop-color="#FF9D45"/>
</linearGradient>
<linearGradient id="paint69_linear_8104_9133" x1="592.719" y1="393.121" x2="590.946" y2="393.121" gradientUnits="userSpaceOnUse">
<stop stop-color="#FFBB83"/>
<stop offset="1" stop-color="#FF9D45"/>
</linearGradient>
<linearGradient id="paint70_linear_8104_9133" x1="595.19" y1="396.046" x2="593.417" y2="396.046" gradientUnits="userSpaceOnUse">
<stop stop-color="#FFBB83"/>
<stop offset="1" stop-color="#FF9D45"/>
</linearGradient>
<linearGradient id="paint71_linear_8104_9133" x1="82.8283" y1="298.828" x2="78.8285" y2="298.828" gradientUnits="userSpaceOnUse">
<stop stop-color="#B3B3FF"/>
<stop offset="1" stop-color="#8F8FEA"/>
</linearGradient>
<linearGradient id="paint72_linear_8104_9133" x1="96.8283" y1="303.828" x2="92.8285" y2="303.828" gradientUnits="userSpaceOnUse">
<stop stop-color="#B3B3FF"/>
<stop offset="1" stop-color="#8F8FEA"/>
</linearGradient>
<linearGradient id="paint73_linear_8104_9133" x1="111.828" y1="297.828" x2="107.828" y2="297.828" gradientUnits="userSpaceOnUse">
<stop stop-color="#B3B3FF"/>
<stop offset="1" stop-color="#8F8FEA"/>
</linearGradient>
<linearGradient id="paint74_linear_8104_9133" x1="126.828" y1="304.828" x2="122.828" y2="304.828" gradientUnits="userSpaceOnUse">
<stop stop-color="#B3B3FF"/>
<stop offset="1" stop-color="#8F8FEA"/>
</linearGradient>
<linearGradient id="paint75_linear_8104_9133" x1="155.828" y1="292.828" x2="151.828" y2="292.828" gradientUnits="userSpaceOnUse">
<stop stop-color="#B3B3FF"/>
<stop offset="1" stop-color="#8F8FEA"/>
</linearGradient>
<clipPath id="clip0_8104_9133">
<rect width="812" height="705" fill="white" transform="matrix(-1 0 0 1 812 0)"/>
</clipPath>
</defs>
</svg>
