<svg xmlns="http://www.w3.org/2000/svg" xmlns:xlink="http://www.w3.org/1999/xlink" width="600" height="600" viewBox="0 0 600 600"><defs><clipPath id="clip-Wordpress"><rect width="600" height="600"></rect></clipPath></defs><g id="Wordpress" clip-path="url(#clip-Wordpress)"><g id="OBJECTS" transform="translate(-25.961 41.913)"><g id="Group_26969" data-name="Group 26969" transform="translate(43.961 55.237)"><g id="Group_26957" data-name="Group 26957" transform="translate(119.028 57.815)"><rect id="Rectangle_3618" data-name="Rectangle 3618" width="382.264" height="215.836" rx="3.556" fill="#d1d1f2"></rect><path id="Rectangle_3619" data-name="Rectangle 3619" d="M2.91,0H379.354a2.91,2.91,0,0,1,2.91,2.91V26.123a0,0,0,0,1,0,0H0a0,0,0,0,1,0,0V2.91A2.91,2.91,0,0,1,2.91,0Z" fill="#fff"></path><g id="Group_26956" data-name="Group 26956" transform="translate(19.86 10.028)"><path id="Path_36700" data-name="Path 36700" d="M155.372,109.749a3.936,3.936,0,1,1-3.937-3.936A3.937,3.937,0,0,1,155.372,109.749Z" transform="translate(-147.499 -105.813)" fill="#b0adf9"></path><path id="Path_36701" data-name="Path 36701" d="M166.777,109.749a3.936,3.936,0,1,1-3.937-3.936A3.937,3.937,0,0,1,166.777,109.749Z" transform="translate(-143.605 -105.813)" fill="#b0adf9"></path><path id="Path_36702" data-name="Path 36702" d="M178.182,109.749a3.936,3.936,0,1,1-3.937-3.936A3.937,3.937,0,0,1,178.182,109.749Z" transform="translate(-139.711 -105.813)" fill="#b0adf9"></path></g></g><g id="Group_26958" data-name="Group 26958" transform="translate(10.507 1.065)"><path id="Path_36703" data-name="Path 36703" d="M67.823,284.469a8.015,8.015,0,1,1-8.015-8.128A8.071,8.071,0,0,1,67.823,284.469Z" transform="translate(-51.794 19.188)" fill="none" stroke="#d1d1f2" stroke-miterlimit="10" stroke-width="2.021"></path><ellipse id="Ellipse_602" data-name="Ellipse 602" cx="10.731" cy="10.882" rx="10.731" ry="10.882" transform="translate(173.273)" fill="none" stroke="#d1d1f2" stroke-miterlimit="10" stroke-width="2.021"></ellipse><path id="Path_36704" data-name="Path 36704" d="M462.238,252.182a5.84,5.84,0,1,1-5.839-5.921A5.881,5.881,0,0,1,462.238,252.182Z" transform="translate(84.355 8.918)" fill="none" stroke="#d1d1f2" stroke-miterlimit="10" stroke-width="2.021"></path></g><g id="Group_26959" data-name="Group 26959" transform="translate(17.389)"><path id="Path_36705" data-name="Path 36705" d="M146.848,73.18H66.856a3.139,3.139,0,0,1-3.139-3.138h0A3.14,3.14,0,0,1,66.856,66.9h79.992a3.138,3.138,0,0,1,3.138,3.139h0A3.138,3.138,0,0,1,146.848,73.18Z" transform="translate(-54.605 -51.255)" fill="#fff"></path><path id="Path_36706" data-name="Path 36706" d="M470.455,200.591H441.61a3.138,3.138,0,0,1-3.139-3.138h0a3.138,3.138,0,0,1,3.139-3.138h28.845a3.137,3.137,0,0,1,3.138,3.138h0A3.137,3.137,0,0,1,470.455,200.591Z" transform="translate(73.346 -7.752)" fill="#fff"></path><rect id="Rectangle_3620" data-name="Rectangle 3620" width="9.71" height="9.405" rx="1.765" transform="translate(456.792)" fill="#64aef9"></rect><path id="Path_36707" data-name="Path 36707" d="M87.36,217.273,58.907,232.014l8.2,3.97-10.18,12.169,7.943,6.5L74.7,241.589l6.591,7.066Z" transform="translate(-56.924 0.086)" fill="#fff"></path></g><g id="Group_26968" data-name="Group 26968" transform="translate(0 8.611)"><g id="Group_26960" data-name="Group 26960" transform="translate(0 84.198)"><rect id="Rectangle_3621" data-name="Rectangle 3621" width="86.902" height="86.902" rx="4.385" fill="#64aef9"></rect><path id="Path_36708" data-name="Path 36708" d="M92.756,152.588a2.093,2.093,0,1,1,2.961-2.961L104.089,158a2.093,2.093,0,0,1,0,2.959l-8.373,8.373a2.093,2.093,0,0,1-2.961-2.961l6.894-6.892ZM62.949,159.48l6.892,6.892a2.093,2.093,0,0,1-2.959,2.961l-8.373-8.373a2.093,2.093,0,0,1,0-2.959l8.373-8.373a2.093,2.093,0,1,1,2.959,2.961Zm19.084-9.107a2.094,2.094,0,0,1,3.921,1.469l-6.281,16.746a2.093,2.093,0,0,1-3.92-1.47Z" transform="translate(-39.204 -116.029)" fill="#fff"></path></g><g id="Group_26964" data-name="Group 26964" transform="translate(277.778)"><g id="Group_26961" data-name="Group 26961"><path id="Rectangle_3622" data-name="Rectangle 3622" d="M5.116,0h128.9a5.115,5.115,0,0,1,5.115,5.115V111.843a5.116,5.116,0,0,1-5.116,5.116H5.116A5.116,5.116,0,0,1,0,111.843V5.116A5.116,5.116,0,0,1,5.116,0Z" fill="#dc5871"></path></g><g id="Group_26963" data-name="Group 26963" transform="translate(19.322 18.537)"><line id="Line_373" data-name="Line 373" x2="48.828" transform="translate(23.831 42.213)" fill="none" stroke="#fff" stroke-miterlimit="10" stroke-width="1.037"></line><line id="Line_374" data-name="Line 374" x2="101.33" transform="translate(1.355 57.29)" fill="none" stroke="#fff" stroke-miterlimit="10" stroke-width="1.037"></line><line id="Line_375" data-name="Line 375" x2="101.33" transform="translate(1.355 22.754)" fill="none" stroke="#fff" stroke-miterlimit="10" stroke-width="1.037"></line><line id="Line_376" data-name="Line 376" x2="30.486" transform="translate(0 74.629)" fill="none" stroke="#fff" stroke-miterlimit="10" stroke-width="1.037"></line><line id="Line_377" data-name="Line 377" x2="33.037" transform="translate(39.623 74.629)" fill="none" stroke="#fff" stroke-miterlimit="10" stroke-width="1.037"></line><line id="Line_378" data-name="Line 378" x2="13.644" transform="translate(0 42.213)" fill="none" stroke="#fff" stroke-miterlimit="10" stroke-width="1.037"></line><line id="Line_379" data-name="Line 379" x2="33.688" transform="translate(38.972 6.659)" fill="none" stroke="#fff" stroke-miterlimit="10" stroke-width="1.037"></line><g id="Group_26962" data-name="Group 26962" transform="translate(1.756)"><line id="Line_380" data-name="Line 380" x1="5.579" y2="13.317" transform="translate(10.624)" fill="none" stroke="#fff" stroke-miterlimit="10" stroke-width="1.037"></line><path id="Path_36709" data-name="Path 36709" d="M271.832,76.941l-5.081,4.694,5.081,4.96" transform="translate(-266.752 -74.976)" fill="none" stroke="#fff" stroke-miterlimit="10" stroke-width="1.037"></path><path id="Path_36710" data-name="Path 36710" d="M283.719,76.941l5.081,4.694-5.081,4.96" transform="translate(-260.959 -74.976)" fill="none" stroke="#fff" stroke-miterlimit="10" stroke-width="1.037"></path></g></g></g><g id="Group_26967" data-name="Group 26967" transform="translate(474.914 109.442)"><g id="Group_26966" data-name="Group 26966"><path id="Rectangle_3623" data-name="Rectangle 3623" d="M3.048,0H54.89a3.048,3.048,0,0,1,3.048,3.048V28.284a3.048,3.048,0,0,1-3.048,3.048H0a0,0,0,0,1,0,0V3.048A3.048,3.048,0,0,1,3.048,0Z" transform="translate(0.041)" fill="#64aef9"></path><path id="Path_36711" data-name="Path 36711" d="M398.041,161.768,398,175.612,409.82,161.8Z" transform="translate(-397.998 -136.919)" fill="#64aef9"></path><g id="Group_26965" data-name="Group 26965" transform="translate(16.403 12.64)"><path id="Path_36712" data-name="Path 36712" d="M426.906,155.319a2.608,2.608,0,1,0,2.617-2.6A2.608,2.608,0,0,0,426.906,155.319Z" transform="translate(-404.531 -152.648)" fill="#fff"></path><path id="Path_36713" data-name="Path 36713" d="M418.566,155.293a2.608,2.608,0,1,0,2.616-2.6A2.608,2.608,0,0,0,418.566,155.293Z" transform="translate(-407.379 -152.657)" fill="#fff"></path><path id="Path_36714" data-name="Path 36714" d="M410.226,155.267a2.608,2.608,0,1,0,2.616-2.6A2.606,2.606,0,0,0,410.226,155.267Z" transform="translate(-410.226 -152.666)" fill="#fff"></path></g></g></g></g></g><g id="Group_27003" data-name="Group 27003" transform="translate(44.269 199.03)"><g id="Group_26997" data-name="Group 26997" transform="translate(91.53)"><g id="Group_26970" data-name="Group 26970" transform="translate(0 83.519)"><path id="Path_36715" data-name="Path 36715" d="M192.011,352.413h75.815a8,8,0,0,0,8-8h0a8,8,0,0,0-8-8H192.011a8,8,0,0,0-8,8h0A8,8,0,0,0,192.011,352.413Z" transform="translate(-87.981 -186.545)" fill="#0d005d"></path><path id="Path_36716" data-name="Path 36716" d="M164.29,390.559h89.468a9.267,9.267,0,0,0,8.762-11.928L219.794,231.356a9.157,9.157,0,0,0-8.761-6.664H121.566A9.267,9.267,0,0,0,112.8,236.62L155.529,383.9A9.159,9.159,0,0,0,164.29,390.559Z" transform="translate(-112.424 -224.692)" fill="#0d005d"></path><path id="Path_36717" data-name="Path 36717" d="M173.468,390.559H251.4a9.266,9.266,0,0,0,8.761-11.928L217.434,231.356a9.159,9.159,0,0,0-8.762-6.664H130.743a9.266,9.266,0,0,0-8.761,11.928L164.706,383.9A9.16,9.16,0,0,0,173.468,390.559Z" transform="translate(-109.291 -224.692)" fill="#b0adf9"></path><path id="Path_36718" data-name="Path 36718" d="M153.142,352.413h94.694a8,8,0,0,0,8-8h0a8,8,0,0,0-8-8H153.142a8,8,0,0,0-8,8h0A8,8,0,0,0,153.142,352.413Z" transform="translate(-101.252 -186.545)" fill="#0d005d"></path></g><g id="Group_26996" data-name="Group 26996" transform="translate(40.806)"><g id="Group_26983" data-name="Group 26983" transform="translate(22.314 182.803)"><g id="Group_26975" data-name="Group 26975" transform="translate(60.044 0.69)"><g id="Group_26971" data-name="Group 26971" transform="translate(54.13 123.598)"><rect id="Rectangle_3624" data-name="Rectangle 3624" width="22.935" height="31.005" transform="translate(0.131 0) rotate(0.242)" fill="#eec4cb"></rect></g><g id="Group_26973" data-name="Group 26973"><rect id="Rectangle_3625" data-name="Rectangle 3625" width="48.952" height="16.502" transform="translate(91.207 137.929) rotate(180)" fill="#64aef9"></rect><g id="Group_26972" data-name="Group 26972"><path id="Path_36719" data-name="Path 36719" d="M206.314,299.22l-1.614,9.886a34.69,34.69,0,0,0,34.237,40.275h10.251v87.2l42.551.569,2.376-106.827a30.408,30.408,0,0,0-30.336-30.976Z" transform="translate(-204.239 -299.22)" fill="#64aef9"></path><line id="Line_381" data-name="Line 381" x2="42.927" transform="translate(44.941 120.644)" fill="none" stroke="#0d005d" stroke-miterlimit="10" stroke-width="1.029"></line></g></g><g id="Group_26974" data-name="Group 26974" transform="translate(47.759 147.137)"><path id="Path_36720" data-name="Path 36720" d="M246.029,411.961c5.4,1.439,17.756,5.252,23.486-3.054l38.732,20.988-68.374-.449,3.042-15.43A2.5,2.5,0,0,1,246.029,411.961Z" transform="translate(-239.832 -408.907)" fill="#0d005d"></path><rect id="Rectangle_3626" data-name="Rectangle 3626" width="68.376" height="5.926" transform="translate(0.039 20.539) rotate(0.377)" fill="#fff"></rect><path id="Path_36721" data-name="Path 36721" d="M262.054,417.654a1.078,1.078,0,0,0,.447-.357,22.83,22.83,0,0,1,5.049-5.17,1.082,1.082,0,0,0-1.2-1.8,24.481,24.481,0,0,0-5.6,5.7,1.082,1.082,0,0,0,1.3,1.63Z" transform="translate(-232.775 -408.483)" fill="#fff"></path><path id="Path_36722" data-name="Path 36722" d="M265.98,419.722a1.1,1.1,0,0,0,.448-.357,22.807,22.807,0,0,1,5.048-5.17,1.082,1.082,0,0,0-1.2-1.8,24.417,24.417,0,0,0-5.6,5.7,1.082,1.082,0,0,0,1.3,1.63Z" transform="translate(-231.434 -407.777)" fill="#fff"></path><path id="Path_36723" data-name="Path 36723" d="M269.906,421.788a1.078,1.078,0,0,0,.447-.357,22.867,22.867,0,0,1,5.049-5.168,1.082,1.082,0,0,0-1.2-1.8,24.523,24.523,0,0,0-5.6,5.7,1.082,1.082,0,0,0,1.3,1.63Z" transform="translate(-230.094 -407.071)" fill="#fff"></path></g></g><g id="Group_26982" data-name="Group 26982"><g id="Group_26981" data-name="Group 26981"><g id="Group_26978" data-name="Group 26978" transform="translate(47.975 124.288)"><g id="Group_26976" data-name="Group 26976" transform="translate(6.154 0)"><rect id="Rectangle_3627" data-name="Rectangle 3627" width="22.935" height="31.005" transform="translate(0.131 0) rotate(0.242)" fill="#eec4cb"></rect></g><g id="Group_26977" data-name="Group 26977" transform="translate(0 23.138)"><path id="Path_36724" data-name="Path 36724" d="M201.574,410.762c5.4,1.439,17.612,6.152,23.341-2.154L263.647,429.6l-68.374-.449,3.187-16.331A2.5,2.5,0,0,1,201.574,410.762Z" transform="translate(-195.232 -408.608)" fill="#0d005d"></path><rect id="Rectangle_3628" data-name="Rectangle 3628" width="68.376" height="5.926" transform="translate(0.039 20.539) rotate(0.377)" fill="#fff"></rect><path id="Path_36725" data-name="Path 36725" d="M217.453,417.355A1.082,1.082,0,0,0,217.9,417a22.778,22.778,0,0,1,5.048-5.168,1.082,1.082,0,0,0-1.2-1.8,24.512,24.512,0,0,0-5.6,5.7,1.082,1.082,0,0,0,1.3,1.63Z" transform="translate(-188.175 -408.184)" fill="#fff"></path><path id="Path_36726" data-name="Path 36726" d="M221.379,419.423a1.083,1.083,0,0,0,.448-.357,22.87,22.87,0,0,1,5.048-5.17,1.081,1.081,0,0,0-1.2-1.8,24.47,24.47,0,0,0-5.6,5.7,1.082,1.082,0,0,0,1.3,1.63Z" transform="translate(-186.835 -407.478)" fill="#fff"></path><path id="Path_36727" data-name="Path 36727" d="M225.306,421.489a1.09,1.09,0,0,0,.448-.357,22.837,22.837,0,0,1,5.049-5.168,1.082,1.082,0,0,0-1.2-1.8,24.51,24.51,0,0,0-5.6,5.7,1.082,1.082,0,0,0,1.3,1.63Z" transform="translate(-185.494 -406.772)" fill="#fff"></path></g></g><g id="Group_26980" data-name="Group 26980"><rect id="Rectangle_3629" data-name="Rectangle 3629" width="48.952" height="16.502" transform="translate(91.206 138.618) rotate(180)" fill="#64aef9"></rect><g id="Group_26979" data-name="Group 26979"><path id="Path_36728" data-name="Path 36728" d="M161.553,299.22l-1.614,9.886a34.69,34.69,0,0,0,34.237,40.275h10.251v87.2l42.551.569,2.376-106.827a30.408,30.408,0,0,0-30.336-30.976Z" transform="translate(-159.478 -298.53)" fill="#64aef9"></path><line id="Line_382" data-name="Line 382" x2="42.927" transform="translate(44.941 121.688)" fill="none" stroke="#0d005d" stroke-miterlimit="10" stroke-width="1.029"></line><path id="Path_36729" data-name="Path 36729" d="M236.215,350.98l.117-22.06a30.1,30.1,0,0,0-29.945-30.2l-7.583-.013" transform="translate(-146.052 -298.706)" fill="none" stroke="#0d005d" stroke-miterlimit="10" stroke-width="1.029"></path></g></g></g></g></g><g id="Group_26992" data-name="Group 26992" transform="translate(0 68.273)"><g id="Group_26984" data-name="Group 26984" transform="translate(97.031 8.837)"><path id="Path_36730" data-name="Path 36730" d="M242.461,219.915s21.137,28.846,36.1,62.976a12.355,12.355,0,0,1-.989,11.758h0c-5.206,7.861-18.8,6.047-24.041-1.262,0,0-40.007-55-38.3-57.221C215.636,235.637,242.461,219.915,242.461,219.915Z" transform="translate(-215.178 -219.915)" fill="#4b3de4"></path><path id="Path_36731" data-name="Path 36731" d="M257.148,264.734,309.564,243.8l4.539,27.239-52.776,19.923a10.531,10.531,0,0,1-5.979.491,13.553,13.553,0,0,1-10.4-15.507h0A13.542,13.542,0,0,1,257.148,264.734Z" transform="translate(-205.081 -211.76)" fill="#4b3de4"></path></g><g id="Group_26986" data-name="Group 26986" transform="translate(24.389)"><g id="Group_26985" data-name="Group 26985" transform="translate(0 1.525)"><path id="Path_36732" data-name="Path 36732" d="M220.083,214.464l36.286,4.663a6.889,6.889,0,0,1,5.977,7.513L238.9,328.35l-77.877-.192L172.05,226.982a6.889,6.889,0,0,1,6.078-7.672Z" transform="translate(-161.025 -214.464)" fill="#4b3de4"></path><path id="Path_36733" data-name="Path 36733" d="M228.9,261.671c0-1.211,6.506-25.945,6.506-25.945" transform="translate(-137.851 -207.205)" fill="none" stroke="#0d005d" stroke-miterlimit="10" stroke-width="1.029"></path></g><path id="Path_36734" data-name="Path 36734" d="M222.537,216.477l6.719.864s3,11.232-12.592,12.359c-16.249,1.175-22.655-4.837-25.794-12.862l17.892-3.511Z" transform="translate(-150.835 -213.327)" fill="#eec4cb"></path></g><g id="Group_26991" data-name="Group 26991" transform="translate(0 8.836)"><path id="Path_36735" data-name="Path 36735" d="M209.242,237.055s-19.777,39.163-42.1,70.725c-2.5,3.537-8.411,5.3-12.74,5.11h0c-9.772-.421-13.913-10.947-10.222-19.515,0,0,31.277-72.276,35.608-73.459C180.454,219.733,209.242,237.055,209.242,237.055Z" transform="translate(-142.844 -219.914)" fill="#4b3de4"></path><g id="Group_26990" data-name="Group 26990" transform="translate(0 32.251)"><g id="Group_26987" data-name="Group 26987" transform="translate(71.992 45.391)"><path id="Path_36736" data-name="Path 36736" d="M213.518,279.105l-17.006-1.311.531,17.017,14.72-.007Z" transform="translate(-196.512 -277.794)" fill="#eec4cb"></path></g><g id="Group_26989" data-name="Group 26989"><path id="Path_36737" data-name="Path 36737" d="M158.609,269.607l61.126,1.839-1.191,27.366-63.511-1.337a14.049,14.049,0,0,1-11.2-19.082h0A14.047,14.047,0,0,1,158.609,269.607Z" transform="translate(-142.844 -235.234)" fill="#4b3de4"></path><g id="Group_26988" data-name="Group 26988" transform="translate(29.906)"><path id="Path_36738" data-name="Path 36738" d="M187.675,243.956,171.5,279.011l38.445,1.157.035,9.179" transform="translate(-162.964 -243.956)" fill="none" stroke="#0d005d" stroke-miterlimit="10" stroke-width="1.029"></path><line id="Line_383" data-name="Line 383" x1="8.54" y2="4.188" transform="translate(0 35.055)" fill="none" stroke="#0d005d" stroke-miterlimit="10" stroke-width="1.029"></line></g></g><path id="Path_36739" data-name="Path 36739" d="M208.956,279.707s38.99-15.031,34.657,15.677H206.189Z" transform="translate(-121.216 -233.006)" fill="#eec4cb"></path></g></g></g><g id="Group_26995" data-name="Group 26995" transform="translate(63.018)"><circle id="Ellipse_603" data-name="Ellipse 603" cx="7.667" cy="7.667" r="7.667" transform="matrix(0.413, -0.911, 0.911, 0.413, 34.602, 38.285)" fill="#dc5871"></circle><path id="Path_36740" data-name="Path 36740" d="M223.753,197.653l-3.562,27.238c-.7,7.654-6,7.707-13.53,6.959h0c-6.427-.637-11.74-3.066-11.9-9.521l2.753-29.536Z" transform="translate(-188.136 -152.065)" fill="#eec4cb"></path><path id="Path_36741" data-name="Path 36741" d="M218.55,217.3l-17.67-17.339,20.253,1.762Z" transform="translate(-186.046 -149.618)" fill="#dc5871"></path><path id="Path_36742" data-name="Path 36742" d="M209.272,217.391l8.833.877a16.031,16.031,0,0,0,17.578-14.894l1.345-20.352a18.7,18.7,0,0,0-16.815-19.845h0c-10.279-1.021-21.24,6.306-22.261,16.585l-1.139,23.174A13.841,13.841,0,0,0,209.272,217.391Z" transform="translate(-187.44 -162.209)" fill="#eec4cb"></path><path id="Path_36743" data-name="Path 36743" d="M202.6,193.429l2.614-17.476s19.538,5.262,32.221,2.424l.149-1.505c.592-5.963-3.953-11.622-9.787-12.988-5.383-1.26-15.447-2.04-21.75-.9-6.077,1.1-9.465,6.809-9.578,13.391l-.37,9.208Z" transform="translate(-187.677 -162.431)" fill="#0d005d"></path><path id="Path_36744" data-name="Path 36744" d="M201.367,186.444l-4.624,10.622.276-6.545Z" transform="translate(-187.458 -154.232)" fill="#0d005d"></path><g id="Group_26993" data-name="Group 26993" transform="translate(0 23.116)"><path id="Path_36745" data-name="Path 36745" d="M189.86,186.574a7.668,7.668,0,1,0,8.388-6.872A7.668,7.668,0,0,0,189.86,186.574Z" transform="translate(-189.822 -179.664)" fill="#eec4cb"></path><path id="Path_36746" data-name="Path 36746" d="M198.586,188.593s.549-5.532-4.826-5.186" transform="translate(-188.477 -178.391)" fill="none" stroke="#0d005d" stroke-linecap="round" stroke-linejoin="round" stroke-width="0.761"></path></g><g id="Group_26994" data-name="Group 26994" transform="translate(25.115 23.502)"><path id="Path_36747" data-name="Path 36747" d="M219.064,187.372l.37,6.045-2.446-.243" transform="translate(-205.661 -177.417)" fill="none" stroke="#0d005d" stroke-linecap="round" stroke-linejoin="round" stroke-width="0.761"></path><path id="Path_36748" data-name="Path 36748" d="M213.034,179.962s4.179-.215,4.056,2c0,0-.115,1.5-3.753,1.592s-4.554-.306-4.78-1.732S211.089,179.867,213.034,179.962Z" transform="translate(-208.544 -179.951)" fill="#0d005d"></path><path id="Path_36749" data-name="Path 36749" d="M224.629,181.06s-3.387-.655-3.822,1.407c0,0-.267,1.4,2.706,1.885s3.984.04,4.352-1.08C228.281,182,226.254,181.185,224.629,181.06Z" transform="translate(-204.359 -179.606)" fill="#0d005d"></path><path id="Path_36750" data-name="Path 36750" d="M221.181,194.386l-11.528-1.144s-.431,4.031,6.27,4.7A4.651,4.651,0,0,0,221.181,194.386Z" transform="translate(-208.168 -175.413)" fill="#fff"></path><path id="Path_36751" data-name="Path 36751" d="M214.59,186.771a1.53,1.53,0,1,1-1.305-1.724A1.529,1.529,0,0,1,214.59,186.771Z" transform="translate(-207.52 -178.216)" fill="#0d005d"></path><path id="Path_36752" data-name="Path 36752" d="M224.8,187.389a1.53,1.53,0,1,1-1.305-1.724A1.53,1.53,0,0,1,224.8,187.389Z" transform="translate(-204.034 -178.005)" fill="#0d005d"></path></g></g></g></g><g id="Group_27002" data-name="Group 27002" transform="translate(0 28.978)"><g id="Group_26999" data-name="Group 26999" transform="translate(270.567)"><g id="Group_26998" data-name="Group 26998"><path id="Path_36753" data-name="Path 36753" d="M265,189.266,246.022,283.56a6.517,6.517,0,0,0,6.389,7.8h136.62a6.519,6.519,0,0,0,6.374-5.154l20.184-94.294a6.52,6.52,0,0,0-6.375-7.884H271.391A6.519,6.519,0,0,0,265,189.266Z" transform="translate(-245.892 -184.033)" fill="#0d005d"></path><path id="Path_36754" data-name="Path 36754" d="M269.594,192.581l-18.98,94.294a6.519,6.519,0,0,0,6.391,7.8h136.62A6.519,6.519,0,0,0,400,289.526l20.184-94.3a6.519,6.519,0,0,0-6.374-7.882H275.985A6.519,6.519,0,0,0,269.594,192.581Z" transform="translate(-244.324 -182.901)" fill="#fff"></path><path id="Path_36755" data-name="Path 36755" d="M302.455,248.773l-2.549,24.934h11.087Z" transform="translate(-227.45 -161.929)" fill="#0d005d"></path><path id="Path_36756" data-name="Path 36756" d="M301.806,248.39l11.314,55.833h41.243L335.019,248.39Z" transform="translate(-226.801 -162.06)" fill="#fff"></path><circle id="Ellipse_604" data-name="Ellipse 604" cx="8.34" cy="8.34" r="8.34" transform="translate(88.863 34.802)" fill="none" stroke="#b8b6f1" stroke-miterlimit="10" stroke-width="2.028"></circle></g><path id="Path_36757" data-name="Path 36757" d="M395.6,286.934H256.079a2.224,2.224,0,0,0-2.224,2.224h0a2.224,2.224,0,0,0,2.224,2.224H395.6a2.224,2.224,0,0,0,2.224-2.224h0A2.224,2.224,0,0,0,395.6,286.934Z" transform="translate(-243.173 -148.9)" fill="#fff"></path></g><g id="Group_27001" data-name="Group 27001" transform="translate(59.494 142.482)"><path id="Path_36758" data-name="Path 36758" d="M299.788,476.561l61.045-181.4,49.129,179.192" transform="translate(-16.418 -288.572)" fill="none" stroke="#0d005d" stroke-miterlimit="10" stroke-width="2.028"></path><g id="Group_27000" data-name="Group 27000" transform="translate(0 0)"><rect id="Rectangle_3630" data-name="Rectangle 3630" width="433.747" height="12.289" transform="translate(433.747 12.289) rotate(180)" fill="#0d005d"></rect></g><path id="Path_36759" data-name="Path 36759" d="M113.5,476.561l61.045-181.4L223.67,474.356" transform="translate(-80.023 -288.572)" fill="none" stroke="#0d005d" stroke-miterlimit="10" stroke-width="2.028"></path></g><line id="Line_384" data-name="Line 384" x2="543.59" transform="translate(0 329.586)" fill="none" stroke="#fff" stroke-miterlimit="10" stroke-width="2.021"></line></g></g></g><g id="wordpress-seeklogo.com" transform="translate(156 198.628)"><path id="Path_37966" data-name="Path 37966" d="M2.586,18.189A15.607,15.607,0,0,0,11.38,32.233L3.937,11.839a15.545,15.545,0,0,0-1.351,6.35ZM28.724,17.4a8.217,8.217,0,0,0-1.287-4.3c-.791-1.285-1.532-2.374-1.532-3.659a2.7,2.7,0,0,1,2.62-2.77c.069,0,.135.009.2.012A15.6,15.6,0,0,0,5.152,9.619c.366.011.711.019,1,.019,1.632,0,4.159-.2,4.159-.2a.645.645,0,0,1,.1,1.285s-.845.1-1.786.149l5.682,16.9,3.415-10.241L15.3,10.873c-.84-.049-1.636-.149-1.636-.149a.645.645,0,0,1,.1-1.285s2.577.2,4.11.2c1.632,0,4.159-.2,4.159-.2a.645.645,0,0,1,.1,1.285s-.847.1-1.786.149l5.639,16.774,1.556-5.2A18.853,18.853,0,0,0,28.724,17.4Zm-10.26,2.152-4.682,13.6a15.612,15.612,0,0,0,9.59-.249,1.369,1.369,0,0,1-.111-.215l-4.8-13.141ZM31.882,10.7a11.981,11.981,0,0,1,.105,1.6A14.719,14.719,0,0,1,30.8,17.9L26.034,31.677A15.607,15.607,0,0,0,31.882,10.7ZM18.19,0A18.19,18.19,0,1,0,36.38,18.189,18.21,18.21,0,0,0,18.19,0Zm0,35.545A17.356,17.356,0,1,1,35.545,18.189,17.376,17.376,0,0,1,18.19,35.545Z" fill="#464342"></path></g></g></svg>